<svg xmlns="http://www.w3.org/2000/svg" width="24" height="24" viewBox="0 0 24 24" fill="none">
    <path d="M18.835 18.8847C19.2832 18.4276 19.2832 17.6805 18.8438 17.2411L13.6494 12.0468L18.8438 6.84364C19.2832 6.40418 19.292 5.64832 18.835 5.20008C18.3867 4.75184 17.6309 4.75184 17.1914 5.19129L11.9971 10.3856L6.79395 5.19129C6.37207 4.76063 5.59863 4.74305 5.15039 5.20008C4.70215 5.64832 4.71094 6.42176 5.1416 6.84364L10.3359 12.0468L5.1416 17.2411C4.71094 17.6718 4.70215 18.4364 5.15039 18.8847C5.60742 19.3329 6.37207 19.3241 6.79395 18.9022L11.9971 13.6991L17.1914 18.8934C17.6309 19.3329 18.3867 19.3329 18.835 18.8847Z" fill="white"/>
</svg>
