<svg xmlns="http://www.w3.org/2000/svg" width="88" height="88" viewBox="0 0 88 88" fill="none"><script xmlns=""/>
    <path fill-rule="evenodd" clip-rule="evenodd" d="M34.7257 56.7832V63.2361H22.6691C13.1314 63.2361 7.13141 56.9247 7.13141 49.0851C7.13141 42.1512 11.1503 36.6606 17.688 35.4436C18.0842 27.4342 25.9522 22.2267 32.9427 23.8682C36.622 18.5757 42.3955 14.8682 49.8389 14.8682C61.9238 14.8682 71.2635 24.1795 71.2635 37.1417C76.9521 39.3493 80.3767 44.3304 80.3767 50.5285C80.3767 57.9719 74.7446 63.2361 65.7729 63.2361L52.4144 63.2361V56.7832L65.5465 56.7832C71.0936 56.7832 73.7823 54.038 73.7823 50.0757C73.7823 45.4908 70.5842 42.6323 65.3767 41.7549C64.9804 41.6983 64.8106 41.4719 64.8672 41.0757C65.0087 39.6606 65.122 37.9342 65.037 36.2644C64.6125 28.1417 58.3861 21.3493 49.7823 21.3493C42.9616 21.3493 38.7729 24.9719 36.0842 29.9248C35.9144 30.2644 35.6597 30.321 35.2918 30.2361C28.9805 28.4248 23.122 31.3682 23.4616 39.5757C23.4899 40.0002 23.2918 40.2266 22.8673 40.2266C17.2635 40.2266 13.7257 43.6795 13.7257 48.9153C13.7257 53.2455 16.9522 56.7832 22.6974 56.7832H34.7257ZM45.8763 79.9337C45.0838 80.6695 44.3479 80.9526 43.5555 80.9526C42.7913 80.9526 42.0555 80.6695 41.263 79.9337L31.8102 71.0186C31.2725 70.5375 30.9895 69.9431 30.9895 69.179C30.9895 67.7356 32.1781 66.6884 33.5649 66.6884C34.3008 66.6884 35.0083 66.9997 35.5461 67.5375L39.2253 71.2733L40.98 73.4243L40.6121 69.2639V45.0092C40.6121 43.4526 41.914 42.0941 43.5555 42.0941C45.197 42.0941 46.5272 43.4526 46.5272 45.0092V69.2639L46.1593 73.4243L47.914 71.2733L51.5932 67.5375C52.1027 66.9997 52.8102 66.6884 53.5461 66.6884C54.9328 66.6884 56.1215 67.7356 56.1215 69.179C56.1215 69.9431 55.8668 70.5375 55.3291 71.0186L45.8763 79.9337Z" fill="black"/>
</svg>
