<svg width="54" height="36" viewBox="0 0 54 36" fill="none" xmlns="http://www.w3.org/2000/svg">
<g clip-path="url(#clip0_346_3078)">
<mask id="mask0_346_3078" style="mask-type:luminance" maskUnits="userSpaceOnUse" x="0" y="0" width="54" height="36">
<path d="M54 0H0V36H54V0Z" fill="white"/>
</mask>
<g mask="url(#mask0_346_3078)">
<path fill-rule="evenodd" clip-rule="evenodd" d="M17.8613 35.7009C7.99671 35.7009 -0.000244141 27.7759 -0.000244141 18.0003C-0.000244141 8.22453 7.99671 0.299622 17.8613 0.299622H36.1382C46.0028 0.299622 53.9998 8.22453 53.9998 18.0003C53.9998 27.7759 46.0028 35.7009 36.1382 35.7009H17.8613ZM17.8613 33.6427C9.14364 33.6427 2.07668 26.6394 2.07668 18.0003C2.07668 9.36111 9.14364 2.35783 17.8613 2.35783H36.1382C44.8559 2.35783 51.9228 9.36111 51.9228 18.0003C51.9228 26.6394 44.8559 33.6427 36.1382 33.6427H17.8613Z" fill="#b4f12f"/>
<path d="M24.092 28.0534C24.092 26.462 25.3938 25.1719 26.9997 25.1719C28.6056 25.1719 29.9074 26.462 29.9074 28.0534C29.9074 29.6448 28.6056 30.9349 26.9997 30.9349C25.3938 30.9349 24.092 29.6448 24.092 28.0534Z" fill="white"/>
<path fill-rule="evenodd" clip-rule="evenodd" d="M45.9235 17.9409H38.5521L44.3355 12.0128C42.7496 10.4609 40.6104 9.5907 38.3818 9.5907C33.705 9.5907 29.908 13.3535 29.908 17.9882C29.908 22.6229 33.705 26.3857 38.3818 26.3857C43.0586 26.3857 46.8552 22.6229 46.8552 17.9882C46.8552 17.9705 46.8552 17.9528 46.8552 17.9347L45.9235 17.9409ZM40.9211 12.494C40.1318 12.1355 39.2666 11.9449 38.3818 11.9449C35.016 11.9449 32.2832 14.6527 32.2832 17.9882C32.2832 21.3238 35.016 24.0315 38.3818 24.0315C41.0237 24.0315 43.2759 22.3627 44.1216 20.032H38.3818L37.5125 17.9882L36.8806 16.4861L40.9211 12.494Z" fill="white"/>
<path fill-rule="evenodd" clip-rule="evenodd" d="M8.07649 17.9409H15.4479L9.66449 12.0128C11.2505 10.4609 13.3897 9.5907 15.6182 9.5907C20.295 9.5907 24.0921 13.3535 24.0921 17.9882C24.0921 22.6229 20.295 26.3857 15.6182 26.3857C10.9414 26.3857 7.14478 22.6229 7.14478 17.9882C7.14478 17.9705 7.14478 17.9528 7.14478 17.9347L8.07649 17.9409ZM13.0789 12.494C13.8682 12.1355 14.7334 11.9449 15.6182 11.9449C18.9841 11.9449 21.7168 14.6527 21.7168 17.9882C21.7168 21.3238 18.9841 24.0315 15.6182 24.0315C12.9764 24.0315 10.7241 22.3627 9.87838 20.032H15.6182L16.4876 17.9882L17.1194 16.4861L13.0789 12.494Z" fill="white"/>
</g>
</g>
<defs>
<clipPath id="clip0_346_3078">
<rect width="54" height="36" fill="white"/>
</clipPath>
</defs>
</svg>
