<svg xmlns="http://www.w3.org/2000/svg" width="24" height="24" viewBox="0 0 24 24" fill="none"><script xmlns=""/>
    <path d="M11.9958 13.2481C12.2432 13.2481 12.4831 13.146 12.7247 12.9173L20.8893 5.40085C20.4314 5.12181 19.9302 5 19.2567 5H4.7434C4.06991 5 3.56872 5.12181 3.10227 5.40085L11.2754 12.9173C11.517 13.146 11.7569 13.2481 11.9958 13.2481ZM2.17582 18.3959L8.16275 12.1467L2.16631 6.63386C2.08936 6.82479 2 7.24681 2 7.82908V17.1709C2 17.6904 2.07053 18.078 2.17582 18.3959ZM4.50594 20H19.4942C20.0752 20 20.5499 19.8654 20.8825 19.6534L14.6858 13.192L13.6123 14.193C13.0964 14.6669 12.5605 14.8956 11.9958 14.8956C11.4396 14.8956 10.9037 14.6669 10.3878 14.193L9.30578 13.192L3.10912 19.6534C3.44172 19.8654 3.9249 20 4.50594 20ZM21.8242 18.3959C21.921 18.078 22 17.6904 22 17.1709V7.82908C22 7.24681 21.9108 6.82479 21.8337 6.63386L15.8373 12.1467L21.8242 18.3959Z" fill="#000000"/>
    <script xmlns=""/></svg>
