<svg xmlns="http://www.w3.org/2000/svg" xmlns:xlink="http://www.w3.org/1999/xlink" version="1.1" width="64px" height="64px" style="shape-rendering:geometricPrecision; text-rendering:geometricPrecision; image-rendering:optimizeQuality; fill-rule:evenodd; clip-rule:evenodd">
    <g><path style="opacity:0.933" fill="#b3f12f" d="M 63.5,41.5 C 63.5,45.5 63.5,49.5 63.5,53.5C 61.1667,57.8333 57.8333,61.1667 53.5,63.5C 49.5,63.5 45.5,63.5 41.5,63.5C 38.2616,61.9353 35.595,59.602 33.5,56.5C 27.5368,55.5041 21.5368,55.1707 15.5,55.5C 15.5,44.8333 15.5,34.1667 15.5,23.5C 11.9929,24.0065 8.82627,23.3398 6,21.5C 5.33333,17.5 5.33333,13.5 6,9.5C 6.5,9 7,8.5 7.5,8C 23.5,7.33333 39.5,7.33333 55.5,8C 56,8.5 56.5,9 57,9.5C 57.6667,13.5 57.6667,17.5 57,21.5C 54.1737,23.3398 51.0071,24.0065 47.5,23.5C 47.5,26.1667 47.5,28.8333 47.5,31.5C 55.1083,31.2992 60.4417,34.6326 63.5,41.5 Z M 11.5,11.5 C 12.8333,11.5 14.1667,11.5 15.5,11.5C 15.5,14.1667 15.5,16.8333 15.5,19.5C 9.41758,19.1537 8.08425,16.487 11.5,11.5 Z M 23.5,11.5 C 28.8333,11.5 34.1667,11.5 39.5,11.5C 39.5,12.8333 39.5,14.1667 39.5,15.5C 40.8333,15.5 42.1667,15.5 43.5,15.5C 43.8282,20.8746 43.4948,26.2079 42.5,31.5C 41.8333,31.8333 41.1667,32.1667 40.5,32.5C 39.5312,24.6756 35.1978,21.8423 27.5,24C 25.6667,24.5 24.5,25.6667 24,27.5C 21.8423,35.1978 24.6756,39.5312 32.5,40.5C 31.5,42.1667 30.5,43.8333 29.5,45.5C 30.7545,47.3337 31.4211,49.3337 31.5,51.5C 28.8333,51.5 26.1667,51.5 23.5,51.5C 23.5,50.1667 23.5,48.8333 23.5,47.5C 22.1667,47.5 20.8333,47.5 19.5,47.5C 19.5,36.8333 19.5,26.1667 19.5,15.5C 20.8333,15.5 22.1667,15.5 23.5,15.5C 23.5,14.1667 23.5,12.8333 23.5,11.5 Z M 47.5,11.5 C 53.4877,11.664 54.821,14.164 51.5,19C 50.2068,19.49 48.8734,19.6567 47.5,19.5C 47.5,16.8333 47.5,14.1667 47.5,11.5 Z M 29.5,28.5 C 34.1585,28.0146 35.4919,29.848 33.5,34C 28.7282,34.8104 27.3948,32.9771 29.5,28.5 Z M 43.5,36.5 C 54.3181,35.8169 59.1514,40.8169 58,51.5C 54.9596,57.6026 50.1263,59.7693 43.5,58C 37.3974,54.9596 35.2307,50.1263 37,43.5C 38.6941,40.6424 40.8607,38.309 43.5,36.5 Z"/></g>
    <g><path style="opacity:0.766" fill="#b3f02e" d="M 29.5,15.5 C 30.8333,15.5 32.1667,15.5 33.5,15.5C 33.5,16.8333 33.5,18.1667 33.5,19.5C 32.1667,19.5 30.8333,19.5 29.5,19.5C 29.5,18.1667 29.5,16.8333 29.5,15.5 Z"/></g>
    <g><path style="opacity:1" fill="#b3f12e" d="M 45.5,39.5 C 46.8333,39.5 48.1667,39.5 49.5,39.5C 49.5,41.5 49.5,43.5 49.5,45.5C 51.5,45.5 53.5,45.5 55.5,45.5C 55.5,46.8333 55.5,48.1667 55.5,49.5C 53.5,49.5 51.5,49.5 49.5,49.5C 49.5,51.5 49.5,53.5 49.5,55.5C 48.1667,55.5 46.8333,55.5 45.5,55.5C 45.5,53.5 45.5,51.5 45.5,49.5C 43.5,49.5 41.5,49.5 39.5,49.5C 39.5,48.1667 39.5,46.8333 39.5,45.5C 41.5,45.5 43.5,45.5 45.5,45.5C 45.5,43.5 45.5,41.5 45.5,39.5 Z"/></g>
</svg>
