<svg xmlns="http://www.w3.org/2000/svg" width="96" height="96" viewBox="0 0 96 96" fill="none"><script xmlns=""/>
    <path fill-rule="evenodd" clip-rule="evenodd" d="M38.0156 62.6249V69.7499H24.7031C14.1719 69.7499 7.54688 62.7811 7.54688 54.1249C7.54688 46.4686 11.9844 40.4061 19.2031 39.0624C19.6406 30.2186 28.3281 24.4686 36.0469 26.2811C40.1094 20.4374 46.4844 16.3436 54.7031 16.3436C68.0469 16.3436 78.3594 26.6249 78.3594 40.9374C84.6406 43.3749 88.4219 48.8749 88.4219 55.7186C88.4219 63.9374 82.2031 69.7499 72.2969 69.7499H57.5469V62.6249H72.0469C78.1719 62.6249 81.1406 59.5936 81.1406 55.2186C81.1406 50.1561 77.6094 46.9999 71.8594 46.0311C71.4219 45.9686 71.2344 45.7186 71.2969 45.2811C71.4531 43.7186 71.5781 41.8124 71.4844 39.9686C71.0156 30.9999 64.1406 23.4999 54.6406 23.4999C47.1094 23.4999 42.4844 27.4999 39.5156 32.9686C39.3281 33.3436 39.0469 33.4061 38.6406 33.3124C31.6719 31.3124 25.2031 34.5624 25.5781 43.6249C25.6094 44.0936 25.3906 44.3436 24.9219 44.3436C18.7344 44.3436 14.8281 48.1561 14.8281 53.9374C14.8281 58.7186 18.3906 62.6249 24.7344 62.6249H38.0156ZM50.3281 88.1875C49.4531 89 48.6406 89.3125 47.7656 89.3125C46.9219 89.3125 46.1094 89 45.2344 88.1875L34.7969 78.3438C34.2031 77.8125 33.8906 77.1562 33.8906 76.3125C33.8906 74.7188 35.2031 73.5625 36.7344 73.5625C37.5469 73.5625 38.3281 73.9062 38.9219 74.5L42.9844 78.625L44.9219 81L44.5156 76.4062V49.625C44.5156 47.9062 45.9531 46.4062 47.7656 46.4062C49.5781 46.4062 51.0469 47.9062 51.0469 49.625V76.4062L50.6406 81L52.5781 78.625L56.6406 74.5C57.2031 73.9062 57.9844 73.5625 58.7969 73.5625C60.3281 73.5625 61.6406 74.7188 61.6406 76.3125C61.6406 77.1562 61.3594 77.8125 60.7656 78.3438L50.3281 88.1875Z" fill="white" fill-opacity="0.24"/>
    <script xmlns=""/></svg>
