<svg xmlns="http://www.w3.org/2000/svg" width="36" height="36" viewBox="0 0 36 36" fill="none"><script xmlns=""/>
    <path fill-rule="evenodd" clip-rule="evenodd" d="M22.6827 30.6965L20.6565 32.7227C18.8464 34.5193 17.1309 34.5328 15.3343 32.7227L13.3081 30.6965C13.119 30.5074 12.9569 30.4534 12.7138 30.4534H9.85005C7.29704 30.4534 6.08131 29.2376 6.08131 26.6846V23.8209C6.08131 23.5778 6.01377 23.4022 5.83817 23.2266L3.81197 21.1869C2.0154 19.3903 2.00189 17.6748 3.81197 15.8782L5.83817 13.852C6.01377 13.6764 6.08131 13.5008 6.08131 13.2577V10.394C6.08131 7.81392 7.29704 6.62522 9.85005 6.62522H12.7138C12.9569 6.62522 13.1325 6.55768 13.3081 6.38207L15.3343 4.36938C17.1309 2.5458 18.8464 2.5458 20.6565 4.35587L22.6827 6.38207C22.8583 6.55768 23.0339 6.62522 23.277 6.62522H26.1407C28.6937 6.62522 29.9095 7.84094 29.9095 10.394V13.2577C29.9095 13.5008 29.977 13.6629 30.1526 13.852L32.1788 15.8782C33.9754 17.6748 33.9889 19.3903 32.1788 21.1869L30.1526 23.2266C29.977 23.4022 29.9095 23.5778 29.9095 23.8209V26.6846C29.9095 29.2376 28.6937 30.4534 26.1407 30.4534H23.277C23.0339 30.4534 22.8718 30.5074 22.6827 30.6965ZM15.103 24.5098C15.5082 25.0096 15.954 25.2663 16.5078 25.2663C17.0616 25.2663 17.5344 24.9826 17.8721 24.4963L24.1669 14.7705C24.383 14.4464 24.5316 14.0951 24.5316 13.771C24.5316 13.001 23.8562 12.4607 23.1132 12.4607C22.6269 12.4607 22.2217 12.7308 21.8975 13.2441L16.4673 21.8893L13.9953 18.7959C13.6441 18.3637 13.2929 18.1881 12.8336 18.1881C12.0772 18.1881 11.4558 18.7959 11.4558 19.5659C11.4558 19.9306 11.5774 20.2683 11.8611 20.606L15.103 24.5098Z" fill="#00BBFF"/>
    <script xmlns=""/></svg>
