<svg xmlns="http://www.w3.org/2000/svg" width="321" height="64" viewBox="0 0 321 64" fill="none">
    <path opacity="0.32" fill-rule="evenodd" clip-rule="evenodd" d="M169.482 283.676C171.769 292.623 174.056 301.573 176.343 310.52C176.749 310.472 177.154 310.424 177.56 310.376C177.814 310.208 178.069 310.04 178.323 309.873C182.27 297.989 186.218 286.102 190.165 274.218C195.248 256.597 198.11 237.791 201.329 218.831C202.61 204.098 203.892 189.361 205.173 174.627C205.627 166.55 201.634 157.316 203.157 150.514C206.56 135.318 213.04 121.76 213.657 103.46C220.75 100.405 225.985 88.0161 222.449 76.8328C220.063 69.2853 214.093 65.3354 211.727 59.1129C207.949 49.1749 212.164 40.2851 213.576 32.8923C216.893 15.5157 220.04 -1.05786 221.735 -20.0758C222.359 -27.0814 221.718 -59.9466 215.892 -62.7232C205.174 -67.3201 187.7 -65.0811 174.828 -65.7165C170.064 -65.4293 165.3 -65.1416 160.536 -64.8545C156.038 -65.668 151.781 -68.8979 146.027 -69.3324C142.918 -68.9652 139.807 -68.598 136.698 -68.2309C131.214 -69.5736 125.934 -78.8517 120.135 -76.1809C120 -76.165 119.865 -76.149 119.73 -76.133C119.714 -76.2686 119.698 -76.4045 119.682 -76.5401C122.826 -85.5693 126.541 -99.3938 133.555 -105.419C136.07 -107.579 140.694 -106.715 143.861 -108.699C147.146 -110.758 156.388 -125.537 153.943 -131.352C151.708 -134.467 143.264 -134.977 138.718 -134.92C135.122 -130.941 133.625 -132.622 129.057 -129.652C128.363 -129.2 123.548 -123.833 122.475 -122.684C120.164 -117.871 117.851 -113.057 115.539 -108.244C105.812 -92.4911 87.5159 -72.3541 84.2611 -52.5465C83.003 -44.8919 90.0216 -17.4619 92.0833 -10.5456C98.937 12.4439 102.142 34.3313 111.87 52.7431C121.091 70.1965 127.88 88.2858 135.041 109.854C136.909 115.479 140.422 123.666 140.014 131.142C139.204 145.983 126.358 147.644 116.953 155.327C106.749 163.663 99.0596 176.848 95.1375 190.096C81.9185 234.749 112.416 275.562 127.119 308.077C133.162 323.321 139.207 338.569 145.25 353.813C145.791 353.75 146.332 353.686 146.873 353.622C146.809 353.079 146.745 352.536 146.681 351.994C138.938 334.849 134.275 315.009 124.896 299.672C131.399 291.687 154.769 285.411 169.482 283.676ZM140.986 -133.124C140.29 -128.752 138.905 -126.529 139.584 -120.576C139.298 -120.68 139.011 -120.784 138.725 -120.888C137.966 -125.265 136.892 -130.582 139.411 -132.525C139.936 -132.725 140.461 -132.925 140.986 -133.124ZM144.326 -132.693C146.283 -132.374 148.24 -132.054 150.197 -131.735C149.942 -131.568 149.688 -131.4 149.433 -131.232C148.972 -130.49 148.511 -129.748 148.05 -129.005C146.905 -129.42 145.759 -129.835 144.614 -130.25C143.971 -127.561 143.328 -124.87 142.685 -122.181C142.653 -122.452 142.621 -122.723 142.589 -122.995C141.985 -123.474 141.38 -123.953 140.775 -124.432C141.331 -127.161 141.696 -131.504 144.326 -132.693ZM151.461 -131.472C152.44 -129.897 152.363 -129.074 152.442 -126.635C151.567 -127.081 150.692 -127.529 149.817 -127.976C150.365 -129.141 150.913 -130.307 151.461 -131.472ZM136.048 -129.652C136.007 -127.446 133.991 -122.295 132.545 -120.983C132.259 -121.087 131.973 -121.191 131.686 -121.295C131.654 -121.566 131.622 -121.837 131.59 -122.109C130.961 -123.96 130.332 -125.813 129.703 -127.664C129.973 -127.696 130.243 -127.728 130.514 -127.76C132.358 -128.391 134.204 -129.021 136.048 -129.652ZM147.431 -127.281C147.082 -125.169 146.445 -123.79 145.119 -122.468C145.42 -124.479 145.927 -126.171 147.431 -127.281ZM128.416 -124.623C129.62 -121.14 129.747 -117.605 134.145 -117.87C136.443 -118.142 138.742 -118.413 141.04 -118.685C141.111 -117.319 140.772 -117.703 141.686 -116.697C145.229 -118.81 148.063 -122.089 149.197 -126.251C149.5 -126.012 149.802 -125.773 150.104 -125.533C150.828 -125.206 151.552 -124.879 152.276 -124.551C152.292 -124.416 152.308 -124.28 152.324 -124.144C149.453 -119.158 145.351 -115.295 142.452 -110.184C137.153 -109.406 132.753 -108.064 130.31 -105.036C120.706 -93.1304 118.015 -74.7806 111.72 -60.3288C109.686 -56.6497 107.651 -52.9689 105.617 -49.2898C103.334 -40.5149 112.385 -29.8508 112.072 -22.3987C111.471 -8.06851 125.216 7.2443 123.829 14.5975C122.446 16.8241 121.064 19.0519 119.681 21.2784C120.221 21.2146 120.762 21.1507 121.303 21.0868C122.766 19.5385 124.229 17.9897 125.691 16.4414C127.006 22.8792 139.016 39.5587 143.359 40.7703C143.295 40.2277 143.231 39.6846 143.168 39.142C141.544 36.9951 139.92 34.8475 138.297 32.7006C146.041 34.722 154.635 38.5416 163.186 38.0166C160.179 33.3284 148.207 34.6255 143.522 31.6709C151.985 27.5464 143.936 18.7892 146.115 15.2681C149.345 12.5134 154.869 10.8546 155.297 5.92922C149.227 8.68852 145.842 16.295 137.144 15.9146C134.604 14.1108 133.854 10.145 132.391 6.9828C135.954 6.14649 141.515 3.59094 141.861 0.0864245C138.338 0.731402 134.01 1.59528 131.507 2.9599C130.639 1.41137 129.771 -0.137049 128.904 -1.68558C131.221 -1.86222 131.757 -1.7328 132.41 -3.33783C131.87 -3.27399 131.329 -3.2101 130.788 -3.14626C132.525 -4.01919 134.517 -3.75872 135.965 -4.583C135.901 -5.12564 135.837 -5.66868 135.773 -6.21132C132.593 -5.2856 129.411 -4.35934 126.231 -3.43362C125.928 -3.67321 125.626 -3.91243 125.323 -4.152C124.95 -10.9965 129.548 -15.1087 127.773 -21.7761C127.097 -21.6963 126.421 -21.6165 125.745 -21.5366C125.727 -19.7036 126.659 -20.8079 125.125 -19.8125C123.654 -19.0704 122.383 -18.648 120.711 -18.8787C120.696 -19.0142 120.68 -19.1502 120.664 -19.2857C121.938 -20.738 123.717 -21.745 124.24 -23.8354C123.7 -23.7716 123.159 -23.7077 122.618 -23.6439C121.601 -22.9736 120.582 -22.3027 119.565 -21.6324C120.293 -36.7997 137.602 -40.7788 139.879 -51.6843C133.592 -49.0025 118.708 -31.5855 118.013 -24.3383C117.678 -24.849 117.344 -25.3601 117.01 -25.8708C116.604 -25.8229 116.199 -25.7751 115.793 -25.7272C115.857 -25.1845 115.921 -24.6415 115.985 -24.0989C122.767 -13.4438 125.996 -4.12784 125.378 10.2873C125.092 10.1837 124.805 10.0796 124.519 9.976C121.401 -0.81333 109.907 -14.2841 114.646 -28.4809C115.474 -27.7359 114.686 -28.1938 115.959 -27.8104C114.307 -38.0477 117.753 -46.1731 125.588 -50.8223C127.782 -52.1244 131.101 -52.2505 132.147 -54.486C131.066 -54.3583 129.984 -54.2306 128.903 -54.1029C121.759 -50.7809 115.76 -46.1013 114.308 -38.3466C114.173 -38.3306 114.037 -38.3147 113.902 -38.2987C113.854 -38.7058 113.806 -39.1129 113.758 -39.5199C116.341 -54.4589 123.392 -65.2528 142.163 -67.2251C143.157 -65.2706 146.459 -62.3623 148.56 -61.7894C148.512 -62.1965 148.464 -62.6036 148.416 -63.0107C146.872 -64.4794 145.328 -65.948 143.785 -67.4167C162.997 -68.4561 176.233 -51.1267 179.616 -32.0248C179.481 -32.0088 179.345 -31.9928 179.21 -31.9769C177.997 -35.89 172.061 -45.8856 168.418 -46.7993C168.466 -46.3923 168.514 -45.9852 168.562 -45.5781C173.346 -38.2151 192.544 -16.322 190.986 -5.30127C190.574 -2.38492 187.707 -1.20571 187.339 2.14585C186.199 12.5229 190.429 19.5505 183.89 25.2535C189.416 -4.48896 175.374 -24.0142 162.648 -39.9269C159.821 -43.4613 155.947 -54.0528 151.76 -55.5635C151.824 -55.0209 151.888 -54.4779 151.952 -53.9352C162.379 -34.3716 184.535 -20.9215 182.523 10.1437C182.39 14.8365 182.257 19.531 182.124 24.2238C172.04 17.504 173.165 6.6537 172.255 -7.21698C171.849 -7.16909 171.444 -7.1212 171.038 -7.07331C170.84 13.1807 170.306 14.761 182.006 26.7142C181.06 26.8259 180.113 26.9377 179.167 27.0494C174.602 25.8166 171.347 23.3975 168.474 20.0573C167.563 11.4338 173.997 -20.3095 165.471 -22.9254C165.519 -22.5183 165.567 -22.1113 165.615 -21.7042C172.673 -8.26274 165.202 3.80454 166.564 17.8064C166.278 17.7027 165.992 17.5987 165.705 17.4951C161.502 7.31135 164.039 -3.35199 164.497 -13.7302C164.941 -23.7878 160.263 -32.7167 156.659 -38.3944C155.061 -40.9132 154.495 -43.6435 151.431 -44.3809C153.955 -37.111 159.188 -31.4648 161.773 -22.9015C165.861 -9.35656 158.511 0.359563 162.243 12.5383C162.108 12.5542 161.972 12.5702 161.837 12.5862C160.454 9.00019 157.793 5.61137 157.919 0.254088C158.06 -5.76129 159.877 -12.9152 157.551 -20.3393C155.244 -27.7029 150.416 -32.12 146.877 -37.6521C145.516 -39.7788 144.692 -45.9163 142.482 -47.0389C142.674 -45.4105 142.866 -43.7822 143.057 -42.1539C147.014 -33.9759 153.069 -28.7491 155.976 -19.7406C159.058 -10.191 154.185 -0.455005 158.113 8.89851C161.294 16.4715 173.175 24.273 169.723 37.6574C164.889 33.4119 160.389 22.9419 153.825 21.3743C154.159 21.8849 154.493 22.3961 154.827 22.9068C157.852 28.1645 164.996 36.8606 170.011 40.0999C170.281 40.0679 170.551 40.036 170.822 40.0041C170.909 39.5811 170.997 39.158 171.084 38.735C172.425 34.2858 170.137 28.445 169.311 23.6731C173.528 26.2583 176.117 29.1579 182.555 27.8875C182.097 33.8743 177.343 33.7204 175.951 38.1603C176.492 38.0964 177.033 38.0326 177.573 37.9687C179.306 36.3885 181.04 34.8077 182.773 33.2275C182.579 43.7755 176.98 45.4977 175.146 52.2883C175.687 52.2245 176.228 52.1606 176.769 52.0967C181.269 45.3273 184.905 41.3097 184.012 29.7793C186.218 30.9872 187.948 31.6349 191.098 30.5934C191.257 29.6118 191.416 28.6298 191.574 27.6481C191.169 27.696 190.763 27.7439 190.357 27.7918C190.016 28.3823 189.674 28.9732 189.332 29.5638C186.684 29.557 186.126 28.882 184.583 27.6481C193.058 14.5213 195.569 -0.238314 197.613 -18.8785C198.192 -24.1598 200.227 -34.5509 197.245 -39.4719C190.437 -41.4193 183.626 -43.3673 176.818 -45.3147C173.93 -53.5351 168.724 -57.945 163.615 -63.1543C178.088 -65.0453 206.006 -64.8557 216.18 -60.2807C229.265 -21.7639 211.367 11.5971 209.763 42.4227C209.628 42.4387 209.492 42.4546 209.357 42.4706C209.053 38.3754 208.955 28.0748 205.914 27.1932C207.048 36.8263 208.182 46.4626 209.316 56.0957C209.284 55.8242 209.252 55.5531 209.22 55.2816C207.708 51.746 206.194 48.2092 204.682 44.6736C204.276 44.7215 203.87 44.7694 203.465 44.8173C203.577 45.767 203.688 46.7171 203.8 47.6668C206.35 53.2844 209.105 58.0258 211.753 62.8245C195.743 64.445 193.333 76.4875 189.599 87.7281C189.177 87.6404 188.756 87.5523 188.334 87.4647C181.865 78.2113 182.555 63.9227 173.384 58.2747C172.978 58.3226 172.572 58.3705 172.167 58.4184C174.61 61.7067 177.054 64.9957 179.497 68.2841C183.169 75.2066 183.071 85.083 188.574 89.5C188.065 89.8354 187.556 90.1704 187.047 90.5058C186.625 90.4181 186.204 90.33 185.782 90.2424C180.939 84.513 180.445 73.8546 175.441 68.763C165.351 58.498 141.584 62.7431 134.571 74.4141C132.135 78.4675 131.733 82.9738 129.972 87.7519C128.801 82.4776 128.32 74.3581 127.624 67.8051C127.084 67.8689 126.543 67.9328 126.002 67.9966C126.147 71.5563 126.292 75.1168 126.437 78.6764C122.981 63.7447 113.031 51.2936 107.21 37.6094C100.109 20.9177 97.9324 2.31225 92.5814 -16.7954C90.3968 -28.3681 88.2118 -39.9441 86.0272 -51.5168C88.2441 -67.4741 103.783 -86.4382 111.678 -99.121C116.036 -106.121 121.791 -120.164 128.416 -124.623ZM136.623 -124.767C136.664 -123.259 136.704 -121.749 136.745 -120.241C136.61 -120.225 136.474 -120.209 136.339 -120.193C136.188 -120.313 136.037 -120.433 135.886 -120.552C135.496 -122.925 135.351 -123.676 136.623 -124.767ZM123.118 -75.2949C125.955 -71.1021 130.235 -70.0799 134.312 -67.5365C121.678 -63.1287 113.02 -54.3453 111.944 -40.9567C111.637 -37.1357 113.273 -33.1985 112.379 -30.2769C111.114 -34.2346 106.024 -42.89 107.384 -48.2602C108.766 -50.4871 110.149 -52.7141 111.532 -54.941C113.939 -61.278 116.346 -67.617 118.753 -73.954C120.208 -74.401 121.663 -74.8478 123.118 -75.2949ZM136.366 -64.0643C134.398 -63.4956 135.126 -64.1936 134.482 -62.6036C137.719 -61.8855 140.957 -61.1666 144.194 -60.4485C142.676 -63.3289 139.265 -63.0012 136.366 -64.0643ZM155.86 -62.6515C155.32 -62.5876 154.779 -62.5237 154.238 -62.4599C154.286 -62.0528 154.334 -61.6458 154.382 -61.2387C159.606 -60.3235 162.368 -56.6869 166.959 -55.7072C166.025 -57.8753 164.619 -58.3511 163.187 -59.8019C160.745 -60.7518 158.302 -61.7016 155.86 -62.6515ZM178.776 -42.6567C184.741 -40.8851 190.708 -39.1123 196.673 -37.3407C196.351 -29.5989 196.029 -21.8551 195.706 -14.1133C194.534 -4.88933 191.752 3.3925 190.111 11.7242C189.976 11.7401 189.841 11.7561 189.706 11.7721C189.044 6.44794 190.091 2.90969 190.654 -1.13471C191.362 -0.942966 192.07 -0.751691 192.778 -0.560008C192.149 -6.41391 192.412 -13.0372 189.954 -17.5615C187.296 -21.512 184.637 -25.4642 181.979 -29.4147C180.77 -32.5165 178.009 -41.5112 178.776 -42.6567ZM124.786 -29.6782C122.653 -28.9389 121.853 -28.198 121.519 -25.9906C122.06 -26.0544 122.601 -26.1183 123.142 -26.1821C124.714 -27.4103 125.291 -27.6926 124.786 -29.6782ZM126.224 -17.4659C125.708 -16.0293 125.191 -14.5922 124.675 -13.1556C124.412 -14.2249 124.149 -15.295 123.886 -16.3644C124.665 -16.7317 125.445 -17.0985 126.224 -17.4659ZM128.332 0.445589C129.144 2.68826 129.957 4.93169 130.769 7.17436C130.634 7.19031 130.498 7.20631 130.363 7.22226C129.435 6.08255 130.203 6.57295 128.597 6.19257C128.509 4.2772 128.421 2.36096 128.332 0.445589ZM137.233 2.69652C135.945 3.39876 134.657 4.10148 133.369 4.80373C134.338 3.57575 135.172 3.15196 137.233 2.69652ZM129.147 7.36593C129.21 7.90855 129.274 8.4516 129.338 8.99423C129.203 9.01018 129.068 9.02617 128.933 9.04212C129.004 8.48355 129.075 7.9245 129.147 7.36593ZM130.651 9.66472C132.475 14.6767 134.298 19.6907 136.122 24.7027C135.231 24.1199 134.34 23.537 133.449 22.9546C131.85 19.5307 129.205 14.4642 130.651 9.66472ZM127.406 10.0478C128.639 20.3201 133.937 31.8578 145.428 26.9057C144.377 29.2569 143.093 29.6294 140.993 31.1441C133.611 31.2604 123.946 18.3 127.406 10.0478ZM143.777 16.3696C144.502 19.0353 145.227 21.7018 145.952 24.3675C145.563 24.5509 145.173 24.7348 144.783 24.9182C143.908 25.8574 142.275 26.3441 140.775 25.8042C137.69 24.849 135.863 21.9226 135.307 17.7824C138.302 17.8857 141.35 17.3322 143.777 16.3696ZM156.828 64.3569C162.891 65.9964 167.551 65.6625 172.148 68.739C186.764 78.5207 179.937 99.6041 167.036 105.663C151.931 112.758 147.329 102.672 139.404 101.497C139.467 102.039 139.531 102.582 139.595 103.125C158.944 116.393 173.907 108.108 182.442 89.8113C184.777 92.0978 187.24 92.9858 190.34 90.5297C190.372 90.8012 190.404 91.0723 190.435 91.3439C194.671 99.389 198.752 109.999 211.725 104.514C211.569 106.201 211.521 106.97 210.486 107.962C203.605 113.582 193.83 104.208 186.958 103.724C179.056 103.167 174.041 108.154 168.374 110.045C163.282 111.745 142.88 112.877 137.81 112.416C137.364 110.956 136.918 109.494 136.472 108.034C138.36 107.219 139.337 107.238 139.835 105.16C138.499 105.456 137.163 105.751 135.827 106.046C134.29 101.138 132.752 96.2282 131.215 91.3198C131.477 77.5365 141.079 66.1364 156.828 64.3569ZM212.35 64.4049C224.182 74.1472 224.549 108.517 203.373 103.437C183.571 98.6855 193.185 66.3004 212.35 64.4049ZM187.197 105.759C194.367 108.656 201.22 112.927 211.179 110.357C210.899 125.291 203.786 137.641 201.129 150.753C199.269 159.936 203.003 166.45 193.002 169.048C192.954 168.641 192.906 168.234 192.858 167.827C194.509 159.953 199.213 153.07 199.695 145.557C193.708 148.638 192.333 162.627 191.022 169.694C176.409 171.737 142.15 154.912 136.013 146.06C135.997 145.924 135.981 145.788 135.965 145.653C143.585 141.476 142.838 124.82 138.503 114.811C147.938 112.462 157.903 115.295 168.613 112.081C175.157 110.117 178.889 106.809 187.197 105.759ZM188.347 115.529C187.807 115.593 187.266 115.657 186.725 115.721C186.901 117.213 187.076 118.706 187.252 120.199C186.659 127.972 186.066 135.748 185.474 143.522C183.536 150.353 181.599 157.188 179.661 164.019C186.721 160.41 189.656 127.736 188.347 115.529ZM168.196 136.482C165.6 137.928 161.856 157.879 166.775 159.35C165.462 149.562 167.949 143.938 168.196 136.482ZM134.081 147.113C140.528 156.754 172.507 171.506 185.988 172.352C195.194 172.931 199.433 168.08 202.663 163.78C204.515 177.162 199.252 185.422 192.392 191.82C192.257 191.836 192.122 191.852 191.987 191.868C185.11 170.005 166.043 181.793 148.415 185.044C146.784 182.68 143.595 182.61 141.708 180.47C135.215 171.882 128.719 163.292 122.226 154.704C124.758 151.478 129.8 148.812 134.081 147.113ZM146.775 247.973C135.092 249.118 124.678 251.666 116.524 256.498C113.201 258.467 110.155 262.972 107.103 263.801C103.491 252.205 98.4821 241.32 94.6305 227.715C87.3263 201.914 104.982 164.461 119.936 156.213C119.952 156.348 119.968 156.484 119.984 156.62C118.139 168.033 134.651 187.384 141.188 190.024C141.66 201.107 143.776 210.843 146.094 221.226C145.807 221.122 145.521 221.018 145.235 220.914C140.614 210.569 121.911 174.555 112.833 172.735C112.73 173.023 112.627 173.31 112.524 173.597C115.038 176.327 117.553 179.057 120.067 181.787C126.379 189.78 132.327 199.305 136.496 209.564C136.21 209.46 135.924 209.356 135.637 209.253C133.989 206.371 130.536 203.498 127.784 201.925C127.378 201.973 126.973 202.021 126.567 202.069C126.631 202.612 126.695 203.155 126.759 203.697C133.329 207.964 142.298 217.267 146.071 224.53C146.306 232.344 146.54 240.16 146.775 247.973ZM122.156 157.602C125.086 163.768 137.722 180.974 142.998 184.445C142.585 185.594 142.172 186.744 141.759 187.893C140.566 187.071 139.372 186.249 138.179 185.427C134.685 179.919 119.458 167.852 122.156 157.602ZM174.587 180.302C175.279 180.358 175.971 180.414 176.663 180.47C176.465 182.282 176.267 184.094 176.069 185.906C176.475 185.858 176.88 185.81 177.286 185.762C177.54 185.595 177.795 185.427 178.049 185.259C178.176 184.006 178.302 182.753 178.429 181.5C185.438 182.2 191.746 191.017 190.917 200.249C175.147 211.642 156.566 206.73 146.176 193.975C146.581 191.589 146.985 189.202 147.39 186.816C156.217 187.272 164.195 181.689 174.587 180.302ZM145.933 184.924C141.254 199.772 150.336 214.889 149.463 232.384C149.163 238.417 147.16 251.014 151.121 256.953C153.718 260.846 160.431 258.7 162.338 261.407C161.932 261.455 161.526 261.502 161.121 261.55C157.525 260.924 153.377 260.65 151.265 258.174C146.366 252.429 148.536 237.801 148.818 230.397C149.123 222.384 146.36 214.072 144.56 208.199C142.439 201.274 141.619 188.046 145.933 184.924ZM202.695 181.524C202.676 187.408 197.791 193.666 194.232 196.969C193.985 196.035 193.738 195.101 193.491 194.167C196.559 189.953 199.627 185.738 202.695 181.524ZM202.436 189.809C201.334 196.419 199.335 199.286 194.951 203.075C195.344 197.439 199.163 193.172 202.436 189.809ZM146.106 196.873C156.338 207.874 174.46 213.981 190.847 203.147C190.633 204.823 190.419 206.499 190.205 208.175C177.962 213.72 167.761 228.006 150.82 226.446C150.117 217.884 143.809 205.667 146.106 196.873ZM189.369 256.977C187.778 239.164 191.683 208.364 201.51 199.411C200.497 213.968 198.011 228.881 195.041 242.274C194.087 246.576 194.515 253.779 191.349 256.33C190.689 256.546 190.029 256.761 189.369 256.977ZM192.115 210.426C192.163 210.833 192.211 211.24 192.258 211.647C192.075 211.256 191.892 210.865 191.709 210.474C191.844 210.458 191.98 210.442 192.115 210.426ZM189.729 211.121C186.866 224.867 183.789 240.438 185.217 256.642C185.082 256.657 184.947 256.673 184.812 256.689C178.561 255.371 170.927 256.229 162.67 257.24C160.183 246.5 152.853 239.135 151.06 228.481C165.952 230.875 179.645 215.812 189.729 211.121ZM151.421 235.042C153.085 238.698 154.749 242.354 156.413 246.01C153.269 247.084 151.255 248.664 150.853 244.19C151.042 241.141 151.232 238.091 151.421 235.042ZM151.022 249.123C153.169 248.732 155.317 248.34 157.464 247.949C158.674 251.246 159.885 254.543 161.095 257.839C160.03 258.102 158.964 258.366 157.898 258.629C153.819 257.264 151.664 254.867 151.022 249.123ZM146.561 249.649C150.182 268.245 154.443 257.886 163.079 264.208C164.998 270.035 166.918 275.863 168.837 281.689C150.115 283.748 136.481 290.879 123.797 297.325C118.734 286.918 113.67 276.507 108.607 266.1C118.907 257.867 127.542 251.886 146.561 249.649ZM187.315 253.505C187.379 254.047 187.443 254.59 187.507 255.133C187.372 255.149 187.237 255.165 187.102 255.181C187.173 254.622 187.244 254.063 187.315 253.505ZM172.596 257.719C176.747 258.054 180.9 258.39 185.051 258.725C185.067 258.86 185.083 258.996 185.099 259.132C185.147 259.539 185.195 259.946 185.243 260.353C184.972 260.385 184.702 260.417 184.432 260.449C178.881 263.56 170.044 261.314 164.414 261.574C164.199 260.912 163.983 260.249 163.768 259.587C163.872 259.299 163.975 259.012 164.078 258.725C166.917 258.39 169.757 258.054 172.596 257.719ZM187.245 256.402C187.671 260.618 188.455 264.612 189.398 267.704C189.263 267.72 189.128 267.736 188.992 267.752C188.961 267.481 188.929 267.21 188.897 266.938C187.626 265.29 186.463 258.85 187.245 256.402ZM191.994 258.318C191.542 260.297 191.089 262.277 190.637 264.256C190.502 264.272 190.367 264.288 190.232 264.304C190.024 262.54 189.816 260.776 189.609 259.012C190.404 258.781 191.199 258.549 191.994 258.318ZM167.492 263.275C172.1 264.71 180.235 263.775 185.482 262.389C185.85 266.275 186.887 268.515 188.874 270.243C186.976 276.245 185.078 282.248 183.18 288.25C179.623 286.877 176.33 285.929 171.75 285.472C169.52 278.169 167.289 270.865 165.059 263.562C165.87 263.466 166.681 263.37 167.492 263.275ZM172.801 287.412C176.289 288.658 180.011 288.55 182.657 290.788C180.917 295.809 179.178 300.83 177.438 305.85C177.303 305.866 177.168 305.882 177.033 305.898C175.623 299.736 174.211 293.573 172.801 287.412ZM177.704 311.597C177.298 311.645 176.892 311.693 176.487 311.741C178.73 328.848 179.617 343.891 177.797 357.812C176.552 364.7 175.306 371.59 174.061 378.478C174.467 378.43 174.872 378.382 175.278 378.334C180.736 370.774 183.801 327 177.704 311.597Z" fill="#b4f12f"/>
    <defs>
        <linearGradient id="paint0_linear_151_78266" x1="130.548" y1="-133.955" x2="190.82" y2="376.499" gradientUnits="userSpaceOnUse">
            <stop stop-color="#F58448"/>
            <stop offset="1" stop-color="#F05277"/>
        </linearGradient>
    </defs>
</svg>
