<svg xmlns="http://www.w3.org/2000/svg" width="321" height="64" viewBox="0 0 321 64" fill="none">
    <path opacity="0.32" fill-rule="evenodd" clip-rule="evenodd" d="M169.482 215.676C171.769 224.623 174.056 233.573 176.343 242.52C176.749 242.472 177.154 242.424 177.56 242.376C177.814 242.208 178.069 242.04 178.323 241.873C182.27 229.989 186.218 218.102 190.165 206.218C195.248 188.597 198.11 169.791 201.329 150.831C202.61 136.098 203.892 121.361 205.173 106.627C205.627 98.5501 201.634 89.3161 203.157 82.5139C206.56 67.3176 213.04 53.7598 213.657 35.4605C220.75 32.4054 225.985 20.0161 222.449 8.8328C220.063 1.28534 214.093 -2.66456 211.727 -8.88709C207.949 -18.8251 212.164 -27.7149 213.576 -35.1077C216.893 -52.4843 220.04 -69.0579 221.735 -88.0758C222.359 -95.0814 221.718 -127.947 215.892 -130.723C205.174 -135.32 187.7 -133.081 174.828 -133.716C170.064 -133.429 165.3 -133.142 160.536 -132.854C156.038 -133.668 151.781 -136.898 146.027 -137.332C142.918 -136.965 139.807 -136.598 136.698 -136.231C131.214 -137.574 125.934 -146.852 120.135 -144.181C120 -144.165 119.865 -144.149 119.73 -144.133C119.714 -144.269 119.698 -144.405 119.682 -144.54C122.826 -153.569 126.541 -167.394 133.555 -173.419C136.07 -175.579 140.694 -174.715 143.861 -176.699C147.146 -178.758 156.388 -193.537 153.943 -199.352C151.708 -202.467 143.264 -202.977 138.718 -202.92C135.122 -198.941 133.625 -200.622 129.057 -197.652C128.363 -197.2 123.548 -191.833 122.475 -190.684C120.164 -185.871 117.851 -181.057 115.539 -176.244C105.812 -160.491 87.5159 -140.354 84.2611 -120.546C83.003 -112.892 90.0216 -85.4619 92.0833 -78.5456C98.937 -55.5561 102.142 -33.6687 111.87 -15.2569C121.091 2.19648 127.88 20.2858 135.041 41.8538C136.909 47.4789 140.422 55.6659 140.014 63.1417C139.204 77.9835 126.358 79.6439 116.953 87.3269C106.749 95.663 99.0596 108.848 95.1375 122.096C81.9185 166.749 112.416 207.562 127.119 240.077C133.162 255.321 139.207 270.569 145.25 285.813C145.791 285.75 146.332 285.686 146.873 285.622C146.809 285.079 146.745 284.536 146.681 283.994C138.938 266.849 134.275 247.009 124.896 231.672C131.399 223.687 154.769 217.411 169.482 215.676ZM140.986 -201.124C140.29 -196.752 138.905 -194.529 139.584 -188.576C139.298 -188.68 139.011 -188.784 138.725 -188.888C137.966 -193.265 136.892 -198.582 139.411 -200.525C139.936 -200.725 140.461 -200.925 140.986 -201.124ZM144.326 -200.693C146.283 -200.374 148.24 -200.054 150.197 -199.735C149.942 -199.568 149.688 -199.4 149.433 -199.232C148.972 -198.49 148.511 -197.748 148.05 -197.005C146.905 -197.42 145.759 -197.835 144.614 -198.25C143.971 -195.561 143.328 -192.87 142.685 -190.181C142.653 -190.452 142.621 -190.723 142.589 -190.995C141.985 -191.474 141.38 -191.953 140.775 -192.432C141.331 -195.161 141.696 -199.504 144.326 -200.693ZM151.461 -199.472C152.44 -197.897 152.363 -197.074 152.442 -194.635C151.567 -195.081 150.692 -195.529 149.817 -195.976C150.365 -197.141 150.913 -198.307 151.461 -199.472ZM136.048 -197.652C136.007 -195.446 133.991 -190.295 132.545 -188.983C132.259 -189.087 131.973 -189.191 131.686 -189.295C131.654 -189.566 131.622 -189.837 131.59 -190.109C130.961 -191.96 130.332 -193.813 129.703 -195.664C129.973 -195.696 130.243 -195.728 130.514 -195.76C132.358 -196.391 134.204 -197.021 136.048 -197.652ZM147.431 -195.281C147.082 -193.169 146.445 -191.79 145.119 -190.468C145.42 -192.479 145.927 -194.171 147.431 -195.281ZM128.416 -192.623C129.62 -189.14 129.747 -185.605 134.145 -185.87C136.443 -186.142 138.742 -186.413 141.04 -186.685C141.111 -185.319 140.772 -185.703 141.686 -184.697C145.229 -186.81 148.063 -190.089 149.197 -194.251C149.5 -194.012 149.802 -193.773 150.104 -193.533C150.828 -193.206 151.552 -192.879 152.276 -192.551C152.292 -192.416 152.308 -192.28 152.324 -192.144C149.453 -187.158 145.351 -183.295 142.452 -178.184C137.153 -177.406 132.753 -176.064 130.31 -173.036C120.706 -161.13 118.015 -142.781 111.72 -128.329C109.686 -124.65 107.651 -120.969 105.617 -117.29C103.334 -108.515 112.385 -97.8508 112.072 -90.3987C111.471 -76.0685 125.216 -60.7557 123.829 -53.4025C122.446 -51.1759 121.064 -48.9481 119.681 -46.7216C120.221 -46.7854 120.762 -46.8493 121.303 -46.9132C122.766 -48.4615 124.229 -50.0103 125.691 -51.5586C127.006 -45.1208 139.016 -28.4413 143.359 -27.2297C143.295 -27.7723 143.231 -28.3154 143.168 -28.858C141.544 -31.0049 139.92 -33.1525 138.297 -35.2994C146.041 -33.278 154.635 -29.4584 163.186 -29.9834C160.179 -34.6716 148.207 -33.3745 143.522 -36.3291C151.985 -40.4536 143.936 -49.2108 146.115 -52.7319C149.345 -55.4866 154.869 -57.1454 155.297 -62.0708C149.227 -59.3115 145.842 -51.705 137.144 -52.0854C134.604 -53.8892 133.854 -57.855 132.391 -61.0172C135.954 -61.8535 141.515 -64.4091 141.861 -67.9136C138.338 -67.2686 134.01 -66.4047 131.507 -65.0401C130.639 -66.5886 129.771 -68.137 128.904 -69.6856C131.221 -69.8622 131.757 -69.7328 132.41 -71.3378C131.87 -71.274 131.329 -71.2101 130.788 -71.1463C132.525 -72.0192 134.517 -71.7587 135.965 -72.583C135.901 -73.1256 135.837 -73.6687 135.773 -74.2113C132.593 -73.2856 129.411 -72.3593 126.231 -71.4336C125.928 -71.6732 125.626 -71.9124 125.323 -72.152C124.95 -78.9965 129.548 -83.1087 127.773 -89.7761C127.097 -89.6963 126.421 -89.6165 125.745 -89.5366C125.727 -87.7036 126.659 -88.8079 125.125 -87.8125C123.654 -87.0704 122.383 -86.648 120.711 -86.8787C120.696 -87.0142 120.68 -87.1502 120.664 -87.2857C121.938 -88.738 123.717 -89.745 124.24 -91.8354C123.7 -91.7716 123.159 -91.7077 122.618 -91.6439C121.601 -90.9736 120.582 -90.3027 119.565 -89.6324C120.293 -104.8 137.602 -108.779 139.879 -119.684C133.592 -117.002 118.708 -99.5855 118.013 -92.3383C117.678 -92.849 117.344 -93.3601 117.01 -93.8708C116.604 -93.8229 116.199 -93.7751 115.793 -93.7272C115.857 -93.1845 115.921 -92.6415 115.985 -92.0989C122.767 -81.4438 125.996 -72.1278 125.378 -57.7127C125.092 -57.8163 124.805 -57.9204 124.519 -58.024C121.401 -68.8133 109.907 -82.2841 114.646 -96.4809C115.474 -95.7359 114.686 -96.1938 115.959 -95.8104C114.307 -106.048 117.753 -114.173 125.588 -118.822C127.782 -120.124 131.101 -120.25 132.147 -122.486C131.066 -122.358 129.984 -122.231 128.903 -122.103C121.759 -118.781 115.76 -114.101 114.308 -106.347C114.173 -106.331 114.037 -106.315 113.902 -106.299C113.854 -106.706 113.806 -107.113 113.758 -107.52C116.341 -122.459 123.392 -133.253 142.163 -135.225C143.157 -133.271 146.459 -130.362 148.56 -129.789C148.512 -130.197 148.464 -130.604 148.416 -131.011C146.872 -132.479 145.328 -133.948 143.785 -135.417C162.997 -136.456 176.233 -119.127 179.616 -100.025C179.481 -100.009 179.345 -99.9928 179.21 -99.9769C177.997 -103.89 172.061 -113.886 168.418 -114.799C168.466 -114.392 168.514 -113.985 168.562 -113.578C173.346 -106.215 192.544 -84.322 190.986 -73.3013C190.574 -70.3849 187.707 -69.2057 187.339 -65.8541C186.199 -55.4771 190.429 -48.4495 183.89 -42.7465C189.416 -72.489 175.374 -92.0142 162.648 -107.927C159.821 -111.461 155.947 -122.053 151.76 -123.564C151.824 -123.021 151.888 -122.478 151.952 -121.935C162.379 -102.372 184.535 -88.9215 182.523 -57.8563C182.39 -53.1635 182.257 -48.469 182.124 -43.7762C172.04 -50.496 173.165 -61.3463 172.255 -75.217C171.849 -75.1691 171.444 -75.1212 171.038 -75.0733C170.84 -54.8193 170.306 -53.239 182.006 -41.2858C181.06 -41.1741 180.113 -41.0623 179.167 -40.9506C174.602 -42.1834 171.347 -44.6025 168.474 -47.9427C167.563 -56.5662 173.997 -88.3095 165.471 -90.9254C165.519 -90.5183 165.567 -90.1113 165.615 -89.7042C172.673 -76.2627 165.202 -64.1955 166.564 -50.1936C166.278 -50.2973 165.992 -50.4013 165.705 -50.5049C161.502 -60.6887 164.039 -71.352 164.497 -81.7302C164.941 -91.7878 160.263 -100.717 156.659 -106.394C155.061 -108.913 154.495 -111.644 151.431 -112.381C153.955 -105.111 159.188 -99.4648 161.773 -90.9015C165.861 -77.3566 158.511 -67.6404 162.243 -55.4617C162.108 -55.4458 161.972 -55.4298 161.837 -55.4138C160.454 -58.9998 157.793 -62.3886 157.919 -67.7459C158.06 -73.7613 159.877 -80.9152 157.551 -88.3393C155.244 -95.7029 150.416 -100.12 146.877 -105.652C145.516 -107.779 144.692 -113.916 142.482 -115.039C142.674 -113.411 142.866 -111.782 143.057 -110.154C147.014 -101.976 153.069 -96.7491 155.976 -87.7406C159.058 -78.191 154.185 -68.455 158.113 -59.1015C161.294 -51.5285 173.175 -43.727 169.723 -30.3426C164.889 -34.5881 160.389 -45.0581 153.825 -46.6257C154.159 -46.1151 154.493 -45.6039 154.827 -45.0932C157.852 -39.8355 164.996 -31.1394 170.011 -27.9001C170.281 -27.9321 170.551 -27.964 170.822 -27.9959C170.909 -28.4189 170.997 -28.842 171.084 -29.265C172.425 -33.7142 170.137 -39.555 169.311 -44.3269C173.528 -41.7417 176.117 -38.8421 182.555 -40.1125C182.097 -34.1257 177.343 -34.2796 175.951 -29.8397C176.492 -29.9036 177.033 -29.9674 177.573 -30.0313C179.306 -31.6115 181.04 -33.1923 182.773 -34.7725C182.579 -24.2245 176.98 -22.5023 175.146 -15.7117C175.687 -15.7755 176.228 -15.8394 176.769 -15.9033C181.269 -22.6727 184.905 -26.6903 184.012 -38.2207C186.218 -37.0128 187.948 -36.3651 191.098 -37.4066C191.257 -38.3882 191.416 -39.3702 191.574 -40.3519C191.169 -40.304 190.763 -40.2561 190.357 -40.2082C190.016 -39.6177 189.674 -39.0268 189.332 -38.4362C186.684 -38.443 186.126 -39.118 184.583 -40.3519C193.058 -53.4787 195.569 -68.2383 197.613 -86.8785C198.192 -92.1598 200.227 -102.551 197.245 -107.472C190.437 -109.419 183.626 -111.367 176.818 -113.315C173.93 -121.535 168.724 -125.945 163.615 -131.154C178.088 -133.045 206.006 -132.856 216.18 -128.281C229.265 -89.7639 211.367 -56.4029 209.763 -25.5773C209.628 -25.5613 209.492 -25.5454 209.357 -25.5294C209.053 -29.6246 208.955 -39.9252 205.914 -40.8068C207.048 -31.1737 208.182 -21.5374 209.316 -11.9043C209.284 -12.1758 209.252 -12.4469 209.22 -12.7184C207.708 -16.254 206.194 -19.7908 204.682 -23.3264C204.276 -23.2785 203.87 -23.2306 203.465 -23.1827C203.577 -22.233 203.688 -21.2829 203.8 -20.3332C206.35 -14.7156 209.105 -9.97419 211.753 -5.1755C195.743 -3.55502 193.333 8.48749 189.599 19.7281C189.177 19.6404 188.756 19.5523 188.334 19.4647C181.865 10.2113 182.555 -4.0773 173.384 -9.72527C172.978 -9.67738 172.572 -9.62949 172.167 -9.5816C174.61 -6.29326 177.054 -3.00425 179.497 0.284066C183.169 7.20659 183.071 17.083 188.574 21.5C188.065 21.8354 187.556 22.1704 187.047 22.5058C186.625 22.4181 186.204 22.33 185.782 22.2424C180.939 16.513 180.445 5.85459 175.441 0.762973C165.351 -9.50199 141.584 -5.25689 134.571 6.4141C132.135 10.4675 131.733 14.9738 129.972 19.7519C128.801 14.4776 128.32 6.35811 127.624 -0.194949C127.084 -0.13111 126.543 -0.0672237 126.002 -0.00338546C126.147 3.5563 126.292 7.11675 126.437 10.6764C122.981 -4.25525 113.031 -16.7064 107.21 -30.3906C100.109 -47.0823 97.9324 -65.6878 92.5814 -84.7954C90.3968 -96.3681 88.2118 -107.944 86.0272 -119.517C88.2441 -135.474 103.783 -154.438 111.678 -167.121C116.036 -174.121 121.791 -188.164 128.416 -192.623ZM136.623 -192.767C136.664 -191.259 136.704 -189.749 136.745 -188.241C136.61 -188.225 136.474 -188.209 136.339 -188.193C136.188 -188.313 136.037 -188.433 135.886 -188.552C135.496 -190.925 135.351 -191.676 136.623 -192.767ZM123.118 -143.295C125.955 -139.102 130.235 -138.08 134.312 -135.536C121.678 -131.129 113.02 -122.345 111.944 -108.957C111.637 -105.136 113.273 -101.199 112.379 -98.2769C111.114 -102.235 106.024 -110.89 107.384 -116.26C108.766 -118.487 110.149 -120.714 111.532 -122.941C113.939 -129.278 116.346 -135.617 118.753 -141.954C120.208 -142.401 121.663 -142.848 123.118 -143.295ZM136.366 -132.064C134.398 -131.496 135.126 -132.194 134.482 -130.604C137.719 -129.885 140.957 -129.167 144.194 -128.448C142.676 -131.329 139.265 -131.001 136.366 -132.064ZM155.86 -130.651C155.32 -130.588 154.779 -130.524 154.238 -130.46C154.286 -130.053 154.334 -129.646 154.382 -129.239C159.606 -128.323 162.368 -124.687 166.959 -123.707C166.025 -125.875 164.619 -126.351 163.187 -127.802C160.745 -128.752 158.302 -129.702 155.86 -130.651ZM178.776 -110.657C184.741 -108.885 190.708 -107.112 196.673 -105.341C196.351 -97.5989 196.029 -89.8551 195.706 -82.1133C194.534 -72.8893 191.752 -64.6075 190.111 -56.2758C189.976 -56.2599 189.841 -56.2439 189.706 -56.2279C189.044 -61.5521 190.091 -65.0903 190.654 -69.1347C191.362 -68.943 192.07 -68.7517 192.778 -68.56C192.149 -74.4139 192.412 -81.0372 189.954 -85.5615C187.296 -89.512 184.637 -93.4642 181.979 -97.4147C180.77 -100.516 178.009 -109.511 178.776 -110.657ZM124.786 -97.6782C122.653 -96.9389 121.853 -96.198 121.519 -93.9906C122.06 -94.0544 122.601 -94.1183 123.142 -94.1821C124.714 -95.4103 125.291 -95.6926 124.786 -97.6782ZM126.224 -85.4659C125.708 -84.0293 125.191 -82.5922 124.675 -81.1556C124.412 -82.2249 124.149 -83.295 123.886 -84.3644C124.665 -84.7317 125.445 -85.0985 126.224 -85.4659ZM128.332 -67.5544C129.144 -65.3117 129.957 -63.0683 130.769 -60.8256C130.634 -60.8097 130.498 -60.7937 130.363 -60.7777C129.435 -61.9175 130.203 -61.427 128.597 -61.8074C128.509 -63.7228 128.421 -65.639 128.332 -67.5544ZM137.233 -65.3035C135.945 -64.6012 134.657 -63.8985 133.369 -63.1963C134.338 -64.4242 135.172 -64.848 137.233 -65.3035ZM129.147 -60.6341C129.21 -60.0914 129.274 -59.5484 129.338 -59.0058C129.203 -58.9898 129.068 -58.9738 128.933 -58.9579C129.004 -59.5165 129.075 -60.0755 129.147 -60.6341ZM130.651 -58.3353C132.475 -53.3233 134.298 -48.3093 136.122 -43.2973C135.231 -43.8801 134.34 -44.463 133.449 -45.0454C131.85 -48.4693 129.205 -53.5358 130.651 -58.3353ZM127.406 -57.9522C128.639 -47.6799 133.937 -36.1422 145.428 -41.0943C144.377 -38.7431 143.093 -38.3706 140.993 -36.8559C133.611 -36.7396 123.946 -49.7 127.406 -57.9522ZM143.777 -51.6304C144.502 -48.9647 145.227 -46.2982 145.952 -43.6325C145.563 -43.4491 145.173 -43.2652 144.783 -43.0818C143.908 -42.1426 142.275 -41.6559 140.775 -42.1958C137.69 -43.151 135.863 -46.0774 135.307 -50.2176C138.302 -50.1143 141.35 -50.6678 143.777 -51.6304ZM156.828 -3.64308C162.891 -2.00358 167.551 -2.33747 172.148 0.739028C186.764 10.5207 179.937 31.6041 167.036 37.6634C151.931 44.758 147.329 34.6721 139.404 33.4968C139.467 34.0394 139.531 34.5825 139.595 35.1251C158.944 48.3928 173.907 40.1081 182.442 21.8113C184.777 24.0978 187.24 24.9858 190.34 22.5297C190.372 22.8012 190.404 23.0723 190.435 23.3439C194.671 31.389 198.752 41.9991 211.725 36.5141C211.569 38.2008 211.521 38.97 210.486 39.9623C203.605 45.5823 193.83 36.208 186.958 35.7238C179.056 35.1669 174.041 40.1542 168.374 42.0455C163.282 43.745 142.88 44.8769 137.81 44.4161C137.364 42.9557 136.918 41.4944 136.472 40.034C138.36 39.2192 139.337 39.238 139.835 37.1605C138.499 37.4557 137.163 37.7513 135.827 38.0465C134.29 33.1381 132.752 28.2282 131.215 23.3198C131.477 9.53652 141.079 -1.8636 156.828 -3.64308ZM212.35 -3.59509C224.182 6.14721 224.549 40.5173 203.373 35.4365C183.571 30.6855 193.185 -1.69957 212.35 -3.59509ZM187.197 37.7592C194.367 40.6557 201.22 44.9269 211.179 42.3569C210.899 57.2913 203.786 69.6412 201.129 82.7534C199.269 91.936 203.003 98.4497 193.002 101.048C192.954 100.641 192.906 100.234 192.858 99.8267C194.509 91.9532 199.213 85.0697 199.695 77.5571C193.708 80.6377 192.333 94.6267 191.022 101.694C176.409 103.737 142.15 86.9123 136.013 78.0599C135.997 77.9243 135.981 77.7883 135.965 77.6528C143.585 73.476 142.838 56.8203 138.503 46.8106C147.938 44.4618 157.903 47.2953 168.613 44.0809C175.157 42.1171 178.889 38.8092 187.197 37.7592ZM188.347 47.5291C187.807 47.5929 187.266 47.6568 186.725 47.7207C186.901 49.213 187.076 50.7062 187.252 52.1985C186.659 59.9722 186.066 67.748 185.474 75.5217C183.536 82.3534 181.599 89.1876 179.661 96.0193C186.721 92.4101 189.656 59.7364 188.347 47.5291ZM168.196 68.4816C165.6 69.9281 161.856 89.8794 166.775 91.3498C165.462 81.5624 167.949 75.9383 168.196 68.4816ZM134.081 79.1135C140.528 88.7535 172.507 103.506 185.988 104.352C195.194 104.931 199.433 100.08 202.663 95.7799C204.515 109.162 199.252 117.422 192.392 123.82C192.257 123.836 192.122 123.852 191.987 123.868C185.11 102.005 166.043 113.793 148.415 117.044C146.784 114.68 143.595 114.61 141.708 112.47C135.215 103.882 128.719 95.2918 122.226 86.7043C124.758 83.4782 129.8 80.8122 134.081 79.1135ZM146.775 179.973C135.092 181.118 124.678 183.666 116.524 188.498C113.201 190.467 110.155 194.972 107.103 195.801C103.491 184.205 98.4821 173.32 94.6305 159.715C87.3263 133.914 104.982 96.4613 119.936 88.2128C119.952 88.3484 119.968 88.4844 119.984 88.6199C118.139 100.033 134.651 119.384 141.188 122.024C141.66 133.107 143.776 142.843 146.094 153.226C145.807 153.122 145.521 153.018 145.235 152.914C140.614 142.569 121.911 106.555 112.833 104.735C112.73 105.023 112.627 105.31 112.524 105.597C115.038 108.327 117.553 111.057 120.067 113.787C126.379 121.78 132.327 131.305 136.496 141.564C136.21 141.46 135.924 141.356 135.637 141.253C133.989 138.371 130.536 135.498 127.784 133.925C127.378 133.973 126.973 134.021 126.567 134.069C126.631 134.612 126.695 135.155 126.759 135.697C133.329 139.964 142.298 149.267 146.071 156.53C146.306 164.344 146.54 172.16 146.775 179.973ZM122.156 89.6017C125.086 95.7678 137.722 112.974 142.998 116.445C142.585 117.594 142.172 118.744 141.759 119.893C140.566 119.071 139.372 118.249 138.179 117.427C134.685 111.919 119.458 99.8523 122.156 89.6017ZM174.587 112.302C175.279 112.358 175.971 112.414 176.663 112.47C176.465 114.282 176.267 116.094 176.069 117.906C176.475 117.858 176.88 117.81 177.286 117.762C177.54 117.595 177.795 117.427 178.049 117.259C178.176 116.006 178.302 114.753 178.429 113.5C185.438 114.2 191.746 123.017 190.917 132.249C175.147 143.642 156.566 138.73 146.176 125.975C146.581 123.589 146.985 121.202 147.39 118.816C156.217 119.272 164.195 113.689 174.587 112.302ZM145.933 116.924C141.254 131.772 150.336 146.889 149.463 164.384C149.163 170.417 147.16 183.014 151.121 188.953C153.718 192.846 160.431 190.7 162.338 193.407C161.932 193.455 161.526 193.502 161.121 193.55C157.525 192.924 153.377 192.65 151.265 190.174C146.366 184.429 148.536 169.801 148.818 162.397C149.123 154.384 146.36 146.072 144.56 140.199C142.439 133.274 141.619 120.046 145.933 116.924ZM202.695 113.524C202.676 119.408 197.791 125.666 194.232 128.969C193.985 128.035 193.738 127.101 193.491 126.167C196.559 121.953 199.627 117.738 202.695 113.524ZM202.436 121.809C201.334 128.419 199.335 131.286 194.951 135.075C195.344 129.439 199.163 125.172 202.436 121.809ZM146.106 128.873C156.338 139.874 174.46 145.981 190.847 135.147C190.633 136.823 190.419 138.499 190.205 140.175C177.962 145.72 167.761 160.006 150.82 158.446C150.117 149.884 143.809 137.667 146.106 128.873ZM189.369 188.977C187.778 171.164 191.683 140.364 201.51 131.411C200.497 145.968 198.011 160.881 195.041 174.274C194.087 178.576 194.515 185.779 191.349 188.33C190.689 188.546 190.029 188.761 189.369 188.977ZM192.115 142.426C192.163 142.833 192.211 143.24 192.258 143.647C192.075 143.256 191.892 142.865 191.709 142.474C191.844 142.458 191.98 142.442 192.115 142.426ZM189.729 143.121C186.866 156.867 183.789 172.438 185.217 188.642C185.082 188.657 184.947 188.673 184.812 188.689C178.561 187.371 170.927 188.229 162.67 189.24C160.183 178.5 152.853 171.135 151.06 160.481C165.952 162.875 179.645 147.812 189.729 143.121ZM151.421 167.042C153.085 170.698 154.749 174.354 156.413 178.01C153.269 179.084 151.255 180.664 150.853 176.19C151.042 173.141 151.232 170.091 151.421 167.042ZM151.022 181.123C153.169 180.732 155.317 180.34 157.464 179.949C158.674 183.246 159.885 186.543 161.095 189.839C160.03 190.102 158.964 190.366 157.898 190.629C153.819 189.264 151.664 186.867 151.022 181.123ZM146.561 181.649C150.182 200.245 154.443 189.886 163.079 196.208C164.998 202.035 166.918 207.863 168.837 213.689C150.115 215.748 136.481 222.879 123.797 229.325C118.734 218.918 113.67 208.507 108.607 198.1C118.907 189.867 127.542 183.886 146.561 181.649ZM187.315 185.505C187.379 186.047 187.443 186.59 187.507 187.133C187.372 187.149 187.237 187.165 187.102 187.181C187.173 186.622 187.244 186.063 187.315 185.505ZM172.596 189.719C176.747 190.054 180.9 190.39 185.051 190.725C185.067 190.86 185.083 190.996 185.099 191.132C185.147 191.539 185.195 191.946 185.243 192.353C184.972 192.385 184.702 192.417 184.432 192.449C178.881 195.56 170.044 193.314 164.414 193.574C164.199 192.912 163.983 192.249 163.768 191.587C163.872 191.299 163.975 191.012 164.078 190.725C166.917 190.39 169.757 190.054 172.596 189.719ZM187.245 188.402C187.671 192.618 188.455 196.612 189.398 199.704C189.263 199.72 189.128 199.736 188.992 199.752C188.961 199.481 188.929 199.21 188.897 198.938C187.626 197.29 186.463 190.85 187.245 188.402ZM191.994 190.318C191.542 192.297 191.089 194.277 190.637 196.256C190.502 196.272 190.367 196.288 190.232 196.304C190.024 194.54 189.816 192.776 189.609 191.012C190.404 190.781 191.199 190.549 191.994 190.318ZM167.492 195.275C172.1 196.71 180.235 195.775 185.482 194.389C185.85 198.275 186.887 200.515 188.874 202.243C186.976 208.245 185.078 214.248 183.18 220.25C179.623 218.877 176.33 217.929 171.75 217.472C169.52 210.169 167.289 202.865 165.059 195.562C165.87 195.466 166.681 195.37 167.492 195.275ZM172.801 219.412C176.289 220.658 180.011 220.55 182.657 222.788C180.917 227.809 179.178 232.83 177.438 237.85C177.303 237.866 177.168 237.882 177.033 237.898C175.623 231.736 174.211 225.573 172.801 219.412ZM177.704 243.597C177.298 243.645 176.892 243.693 176.487 243.741C178.73 260.848 179.617 275.891 177.797 289.812C176.552 296.7 175.306 303.59 174.061 310.478C174.467 310.43 174.872 310.382 175.278 310.334C180.736 302.774 183.801 259 177.704 243.597Z" fill="#b4f12f"/>
    <defs>
        <linearGradient id="paint0_linear_151_78249" x1="130.548" y1="-201.955" x2="190.82" y2="308.499" gradientUnits="userSpaceOnUse">
            <stop stop-color="#F58448"/>
            <stop offset="1" stop-color="#F05277"/>
        </linearGradient>
    </defs>
</svg>
