<svg xmlns="http://www.w3.org/2000/svg" width="321" height="64" viewBox="0 0 321 64" fill="none">
    <path opacity="0.32" fill-rule="evenodd" clip-rule="evenodd" d="M169.482 147.676C171.769 156.623 174.056 165.573 176.343 174.52C176.749 174.472 177.154 174.424 177.56 174.376C177.814 174.208 178.069 174.04 178.323 173.873C182.27 161.989 186.218 150.102 190.165 138.218C195.248 120.597 198.11 101.791 201.329 82.8312C202.61 68.0979 203.892 53.3606 205.173 38.6273C205.627 30.5501 201.634 21.3161 203.157 14.5139C206.56 -0.682437 213.04 -14.2402 213.657 -32.5395C220.75 -35.5946 225.985 -47.9839 222.449 -59.1672C220.063 -66.7147 214.093 -70.6646 211.727 -76.8871C207.949 -86.8251 212.164 -95.7149 213.576 -103.108C216.893 -120.484 220.04 -137.058 221.735 -156.076C222.359 -163.081 221.718 -195.947 215.892 -198.723C205.174 -203.32 187.7 -201.081 174.828 -201.716C170.064 -201.429 165.3 -201.142 160.536 -200.854C156.038 -201.668 151.781 -204.898 146.027 -205.332C142.918 -204.965 139.807 -204.598 136.698 -204.231C131.214 -205.574 125.934 -214.852 120.135 -212.181C120 -212.165 119.865 -212.149 119.73 -212.133C119.714 -212.269 119.698 -212.405 119.682 -212.54C122.826 -221.569 126.541 -235.394 133.555 -241.419C136.07 -243.579 140.694 -242.715 143.861 -244.699C147.146 -246.758 156.388 -261.537 153.943 -267.352C151.708 -270.467 143.264 -270.977 138.718 -270.92C135.122 -266.941 133.625 -268.622 129.057 -265.652C128.363 -265.2 123.548 -259.833 122.475 -258.684C120.164 -253.871 117.851 -249.057 115.539 -244.244C105.812 -228.491 87.5159 -208.354 84.2611 -188.546C83.003 -180.892 90.0216 -153.462 92.0833 -146.546C98.937 -123.556 102.142 -101.669 111.87 -83.2569C121.091 -65.8035 127.88 -47.7142 135.041 -26.1462C136.909 -20.5211 140.422 -12.3341 140.014 -4.85834C139.204 9.9835 126.358 11.6439 116.953 19.3269C106.749 27.663 99.0596 40.8481 95.1375 54.0961C81.9185 98.7486 112.416 139.562 127.119 172.077C133.162 187.321 139.207 202.569 145.25 217.813C145.791 217.75 146.332 217.686 146.873 217.622C146.809 217.079 146.745 216.536 146.681 215.994C138.938 198.849 134.275 179.009 124.896 163.672C131.399 155.687 154.769 149.411 169.482 147.676ZM140.986 -269.124C140.29 -264.752 138.905 -262.529 139.584 -256.576C139.298 -256.68 139.011 -256.784 138.725 -256.888C137.966 -261.265 136.892 -266.582 139.411 -268.525C139.936 -268.725 140.461 -268.925 140.986 -269.124ZM144.326 -268.693C146.283 -268.374 148.24 -268.054 150.197 -267.735C149.942 -267.568 149.688 -267.4 149.433 -267.232C148.972 -266.49 148.511 -265.748 148.05 -265.005C146.905 -265.42 145.759 -265.835 144.614 -266.25C143.971 -263.561 143.328 -260.87 142.685 -258.181C142.653 -258.452 142.621 -258.723 142.589 -258.995C141.985 -259.474 141.38 -259.953 140.775 -260.432C141.331 -263.161 141.696 -267.504 144.326 -268.693ZM151.461 -267.472C152.44 -265.897 152.363 -265.074 152.442 -262.635C151.567 -263.081 150.692 -263.529 149.817 -263.976C150.365 -265.141 150.913 -266.307 151.461 -267.472ZM136.048 -265.652C136.007 -263.446 133.991 -258.295 132.545 -256.983C132.259 -257.087 131.973 -257.191 131.686 -257.295C131.654 -257.566 131.622 -257.837 131.59 -258.109C130.961 -259.96 130.332 -261.813 129.703 -263.664C129.973 -263.696 130.243 -263.728 130.514 -263.76C132.358 -264.391 134.204 -265.021 136.048 -265.652ZM147.431 -263.281C147.082 -261.169 146.445 -259.79 145.119 -258.468C145.42 -260.479 145.927 -262.171 147.431 -263.281ZM128.416 -260.623C129.62 -257.14 129.747 -253.605 134.145 -253.87C136.443 -254.142 138.742 -254.413 141.04 -254.685C141.111 -253.319 140.772 -253.703 141.686 -252.697C145.229 -254.81 148.063 -258.089 149.197 -262.251C149.5 -262.012 149.802 -261.773 150.104 -261.533C150.828 -261.206 151.552 -260.879 152.276 -260.551C152.292 -260.416 152.308 -260.28 152.324 -260.144C149.453 -255.158 145.351 -251.295 142.452 -246.184C137.153 -245.406 132.753 -244.064 130.31 -241.036C120.706 -229.13 118.015 -210.781 111.72 -196.329C109.686 -192.65 107.651 -188.969 105.617 -185.29C103.334 -176.515 112.385 -165.851 112.072 -158.399C111.471 -144.069 125.216 -128.756 123.829 -121.402C122.446 -119.176 121.064 -116.948 119.681 -114.722C120.221 -114.785 120.762 -114.849 121.303 -114.913C122.766 -116.462 124.229 -118.01 125.691 -119.559C127.006 -113.121 139.016 -96.4413 143.359 -95.2297C143.295 -95.7723 143.231 -96.3154 143.168 -96.858C141.544 -99.0049 139.92 -101.153 138.297 -103.299C146.041 -101.278 154.635 -97.4584 163.186 -97.9834C160.179 -102.672 148.207 -101.374 143.522 -104.329C151.985 -108.454 143.936 -117.211 146.115 -120.732C149.345 -123.487 154.869 -125.145 155.297 -130.071C149.227 -127.311 145.842 -119.705 137.144 -120.085C134.604 -121.889 133.854 -125.855 132.391 -129.017C135.954 -129.854 141.515 -132.409 141.861 -135.914C138.338 -135.269 134.01 -134.405 131.507 -133.04C130.639 -134.589 129.771 -136.137 128.904 -137.686C131.221 -137.862 131.757 -137.733 132.41 -139.338C131.87 -139.274 131.329 -139.21 130.788 -139.146C132.525 -140.019 134.517 -139.759 135.965 -140.583C135.901 -141.126 135.837 -141.669 135.773 -142.211C132.593 -141.286 129.411 -140.359 126.231 -139.434C125.928 -139.673 125.626 -139.912 125.323 -140.152C124.95 -146.997 129.548 -151.109 127.773 -157.776C127.097 -157.696 126.421 -157.616 125.745 -157.537C125.727 -155.704 126.659 -156.808 125.125 -155.813C123.654 -155.07 122.383 -154.648 120.711 -154.879C120.696 -155.014 120.68 -155.15 120.664 -155.286C121.938 -156.738 123.717 -157.745 124.24 -159.835C123.7 -159.772 123.159 -159.708 122.618 -159.644C121.601 -158.974 120.582 -158.303 119.565 -157.632C120.293 -172.8 137.602 -176.779 139.879 -187.684C133.592 -185.002 118.708 -167.586 118.013 -160.338C117.678 -160.849 117.344 -161.36 117.01 -161.871C116.604 -161.823 116.199 -161.775 115.793 -161.727C115.857 -161.185 115.921 -160.641 115.985 -160.099C122.767 -149.444 125.996 -140.128 125.378 -125.713C125.092 -125.816 124.805 -125.92 124.519 -126.024C121.401 -136.813 109.907 -150.284 114.646 -164.481C115.474 -163.736 114.686 -164.194 115.959 -163.81C114.307 -174.048 117.753 -182.173 125.588 -186.822C127.782 -188.124 131.101 -188.25 132.147 -190.486C131.066 -190.358 129.984 -190.231 128.903 -190.103C121.759 -186.781 115.76 -182.101 114.308 -174.347C114.173 -174.331 114.037 -174.315 113.902 -174.299C113.854 -174.706 113.806 -175.113 113.758 -175.52C116.341 -190.459 123.392 -201.253 142.163 -203.225C143.157 -201.271 146.459 -198.362 148.56 -197.789C148.512 -198.197 148.464 -198.604 148.416 -199.011C146.872 -200.479 145.328 -201.948 143.785 -203.417C162.997 -204.456 176.233 -187.127 179.616 -168.025C179.481 -168.009 179.345 -167.993 179.21 -167.977C177.997 -171.89 172.061 -181.886 168.418 -182.799C168.466 -182.392 168.514 -181.985 168.562 -181.578C173.346 -174.215 192.544 -152.322 190.986 -141.301C190.574 -138.385 187.707 -137.206 187.339 -133.854C186.199 -123.477 190.429 -116.45 183.89 -110.746C189.416 -140.489 175.374 -160.014 162.648 -175.927C159.821 -179.461 155.947 -190.053 151.76 -191.564C151.824 -191.021 151.888 -190.478 151.952 -189.935C162.379 -170.372 184.535 -156.921 182.523 -125.856C182.39 -121.163 182.257 -116.469 182.124 -111.776C172.04 -118.496 173.165 -129.346 172.255 -143.217C171.849 -143.169 171.444 -143.121 171.038 -143.073C170.84 -122.819 170.306 -121.239 182.006 -109.286C181.06 -109.174 180.113 -109.062 179.167 -108.951C174.602 -110.183 171.347 -112.602 168.474 -115.943C167.563 -124.566 173.997 -156.31 165.471 -158.925C165.519 -158.518 165.567 -158.111 165.615 -157.704C172.673 -144.263 165.202 -132.195 166.564 -118.194C166.278 -118.297 165.992 -118.401 165.705 -118.505C161.502 -128.689 164.039 -139.352 164.497 -149.73C164.941 -159.788 160.263 -168.717 156.659 -174.394C155.061 -176.913 154.495 -179.644 151.431 -180.381C153.955 -173.111 159.188 -167.465 161.773 -158.901C165.861 -145.357 158.511 -135.64 162.243 -123.462C162.108 -123.446 161.972 -123.43 161.837 -123.414C160.454 -127 157.793 -130.389 157.919 -135.746C158.06 -141.761 159.877 -148.915 157.551 -156.339C155.244 -163.703 150.416 -168.12 146.877 -173.652C145.516 -175.779 144.692 -181.916 142.482 -183.039C142.674 -181.411 142.866 -179.782 143.057 -178.154C147.014 -169.976 153.069 -164.749 155.976 -155.741C159.058 -146.191 154.185 -136.455 158.113 -127.101C161.294 -119.529 173.175 -111.727 169.723 -98.3426C164.889 -102.588 160.389 -113.058 153.825 -114.626C154.159 -114.115 154.493 -113.604 154.827 -113.093C157.852 -107.835 164.996 -99.1394 170.011 -95.9001C170.281 -95.9321 170.551 -95.964 170.822 -95.9959C170.909 -96.4189 170.997 -96.842 171.084 -97.265C172.425 -101.714 170.137 -107.555 169.311 -112.327C173.528 -109.742 176.117 -106.842 182.555 -108.112C182.097 -102.126 177.343 -102.28 175.951 -97.8397C176.492 -97.9036 177.033 -97.9674 177.573 -98.0313C179.306 -99.6115 181.04 -101.192 182.773 -102.773C182.579 -92.2245 176.98 -90.5023 175.146 -83.7117C175.687 -83.7755 176.228 -83.8394 176.769 -83.9033C181.269 -90.6727 184.905 -94.6903 184.012 -106.221C186.218 -105.013 187.948 -104.365 191.098 -105.407C191.257 -106.388 191.416 -107.37 191.574 -108.352C191.169 -108.304 190.763 -108.256 190.357 -108.208C190.016 -107.618 189.674 -107.027 189.332 -106.436C186.684 -106.443 186.126 -107.118 184.583 -108.352C193.058 -121.479 195.569 -136.238 197.613 -154.879C198.192 -160.16 200.227 -170.551 197.245 -175.472C190.437 -177.419 183.626 -179.367 176.818 -181.315C173.93 -189.535 168.724 -193.945 163.615 -199.154C178.088 -201.045 206.006 -200.856 216.18 -196.281C229.265 -157.764 211.367 -124.403 209.763 -93.5773C209.628 -93.5613 209.492 -93.5454 209.357 -93.5294C209.053 -97.6246 208.955 -107.925 205.914 -108.807C207.048 -99.1737 208.182 -89.5374 209.316 -79.9043C209.284 -80.1758 209.252 -80.4469 209.22 -80.7184C207.708 -84.254 206.194 -87.7908 204.682 -91.3264C204.276 -91.2785 203.87 -91.2306 203.465 -91.1827C203.577 -90.233 203.688 -89.2829 203.8 -88.3332C206.35 -82.7156 209.105 -77.9742 211.753 -73.1755C195.743 -71.555 193.333 -59.5125 189.599 -48.2719C189.177 -48.3596 188.756 -48.4477 188.334 -48.5353C181.865 -57.7887 182.555 -72.0773 173.384 -77.7253C172.978 -77.6774 172.572 -77.6295 172.167 -77.5816C174.61 -74.2933 177.054 -71.0043 179.497 -67.7159C183.169 -60.7934 183.071 -50.917 188.574 -46.5C188.065 -46.1646 187.556 -45.8296 187.047 -45.4942C186.625 -45.5819 186.204 -45.67 185.782 -45.7576C180.939 -51.487 180.445 -62.1454 175.441 -67.237C165.351 -77.502 141.584 -73.2569 134.571 -61.5859C132.135 -57.5325 131.733 -53.0262 129.972 -48.2481C128.801 -53.5224 128.32 -61.6419 127.624 -68.1949C127.084 -68.1311 126.543 -68.0672 126.002 -68.0034C126.147 -64.4437 126.292 -60.8832 126.437 -57.3236C122.981 -72.2553 113.031 -84.7064 107.21 -98.3906C100.109 -115.082 97.9324 -133.688 92.5814 -152.795C90.3968 -164.368 88.2118 -175.944 86.0272 -187.517C88.2441 -203.474 103.783 -222.438 111.678 -235.121C116.036 -242.121 121.791 -256.164 128.416 -260.623ZM136.623 -260.767C136.664 -259.259 136.704 -257.749 136.745 -256.241C136.61 -256.225 136.474 -256.209 136.339 -256.193C136.188 -256.313 136.037 -256.433 135.886 -256.552C135.496 -258.925 135.351 -259.676 136.623 -260.767ZM123.118 -211.295C125.955 -207.102 130.235 -206.08 134.312 -203.536C121.678 -199.129 113.02 -190.345 111.944 -176.957C111.637 -173.136 113.273 -169.199 112.379 -166.277C111.114 -170.235 106.024 -178.89 107.384 -184.26C108.766 -186.487 110.149 -188.714 111.532 -190.941C113.939 -197.278 116.346 -203.617 118.753 -209.954C120.208 -210.401 121.663 -210.848 123.118 -211.295ZM136.366 -200.064C134.398 -199.496 135.126 -200.194 134.482 -198.604C137.719 -197.885 140.957 -197.167 144.194 -196.448C142.676 -199.329 139.265 -199.001 136.366 -200.064ZM155.86 -198.651C155.32 -198.588 154.779 -198.524 154.238 -198.46C154.286 -198.053 154.334 -197.646 154.382 -197.239C159.606 -196.323 162.368 -192.687 166.959 -191.707C166.025 -193.875 164.619 -194.351 163.187 -195.802C160.745 -196.752 158.302 -197.702 155.86 -198.651ZM178.776 -178.657C184.741 -176.885 190.708 -175.112 196.673 -173.341C196.351 -165.599 196.029 -157.855 195.706 -150.113C194.534 -140.889 191.752 -132.607 190.111 -124.276C189.976 -124.26 189.841 -124.244 189.706 -124.228C189.044 -129.552 190.091 -133.09 190.654 -137.135C191.362 -136.943 192.07 -136.752 192.778 -136.56C192.149 -142.414 192.412 -149.037 189.954 -153.562C187.296 -157.512 184.637 -161.464 181.979 -165.415C180.77 -168.516 178.009 -177.511 178.776 -178.657ZM124.786 -165.678C122.653 -164.939 121.853 -164.198 121.519 -161.991C122.06 -162.054 122.601 -162.118 123.142 -162.182C124.714 -163.41 125.291 -163.693 124.786 -165.678ZM126.224 -153.466C125.708 -152.029 125.191 -150.592 124.675 -149.156C124.412 -150.225 124.149 -151.295 123.886 -152.364C124.665 -152.732 125.445 -153.099 126.224 -153.466ZM128.332 -135.554C129.144 -133.312 129.957 -131.068 130.769 -128.826C130.634 -128.81 130.498 -128.794 130.363 -128.778C129.435 -129.917 130.203 -129.427 128.597 -129.807C128.509 -131.723 128.421 -133.639 128.332 -135.554ZM137.233 -133.303C135.945 -132.601 134.657 -131.899 133.369 -131.196C134.338 -132.424 135.172 -132.848 137.233 -133.303ZM129.147 -128.634C129.21 -128.091 129.274 -127.548 129.338 -127.006C129.203 -126.99 129.068 -126.974 128.933 -126.958C129.004 -127.516 129.075 -128.075 129.147 -128.634ZM130.651 -126.335C132.475 -121.323 134.298 -116.309 136.122 -111.297C135.231 -111.88 134.34 -112.463 133.449 -113.045C131.85 -116.469 129.205 -121.536 130.651 -126.335ZM127.406 -125.952C128.639 -115.68 133.937 -104.142 145.428 -109.094C144.377 -106.743 143.093 -106.371 140.993 -104.856C133.611 -104.74 123.946 -117.7 127.406 -125.952ZM143.777 -119.63C144.502 -116.965 145.227 -114.298 145.952 -111.633C145.563 -111.449 145.173 -111.265 144.783 -111.082C143.908 -110.143 142.275 -109.656 140.775 -110.196C137.69 -111.151 135.863 -114.077 135.307 -118.218C138.302 -118.114 141.35 -118.668 143.777 -119.63ZM156.828 -71.6431C162.891 -70.0036 167.551 -70.3375 172.148 -67.261C186.764 -57.4793 179.937 -36.3959 167.036 -30.3366C151.931 -23.242 147.329 -33.3279 139.404 -34.5032C139.467 -33.9606 139.531 -33.4175 139.595 -32.8749C158.944 -19.6072 173.907 -27.8919 182.442 -46.1887C184.777 -43.9022 187.24 -43.0142 190.34 -45.4703C190.372 -45.1988 190.404 -44.9277 190.435 -44.6561C194.671 -36.611 198.752 -26.0009 211.725 -31.4859C211.569 -29.7992 211.521 -29.03 210.486 -28.0377C203.605 -22.4177 193.83 -31.792 186.958 -32.2762C179.056 -32.8331 174.041 -27.8458 168.374 -25.9545C163.282 -24.255 142.88 -23.1231 137.81 -23.5839C137.364 -25.0443 136.918 -26.5056 136.472 -27.966C138.36 -28.7808 139.337 -28.762 139.835 -30.8395C138.499 -30.5443 137.163 -30.2487 135.827 -29.9535C134.29 -34.8619 132.752 -39.7718 131.215 -44.6802C131.477 -58.4635 141.079 -69.8636 156.828 -71.6431ZM212.35 -71.5951C224.182 -61.8528 224.549 -27.4827 203.373 -32.5635C183.571 -37.3145 193.185 -69.6996 212.35 -71.5951ZM187.197 -30.2408C194.367 -27.3443 201.22 -23.0731 211.179 -25.6431C210.899 -10.7087 203.786 1.64118 201.129 14.7534C199.269 23.936 203.003 30.4497 193.002 33.0479C192.954 32.6408 192.906 32.2338 192.858 31.8267C194.509 23.9532 199.213 17.0697 199.695 9.55714C193.708 12.6377 192.333 26.6267 191.022 33.6945C176.409 35.7372 142.15 18.9123 136.013 10.0599C135.997 9.92431 135.981 9.78834 135.965 9.6528C143.585 5.47595 142.838 -11.1797 138.503 -21.1894C147.938 -23.5382 157.903 -20.7047 168.613 -23.9191C175.157 -25.8829 178.889 -29.1908 187.197 -30.2408ZM188.347 -20.4709C187.807 -20.4071 187.266 -20.3432 186.725 -20.2793C186.901 -18.787 187.076 -17.2938 187.252 -15.8015C186.659 -8.02778 186.066 -0.251966 185.474 7.52173C183.536 14.3534 181.599 21.1876 179.661 28.0193C186.721 24.4101 189.656 -8.26361 188.347 -20.4709ZM168.196 0.48163C165.6 1.92809 161.856 21.8794 166.775 23.3498C165.462 13.5624 167.949 7.93834 168.196 0.48163ZM134.081 11.1135C140.528 20.7535 172.507 35.5058 185.988 36.3524C195.194 36.9305 199.433 32.0801 202.663 27.7799C204.515 41.1621 199.252 49.4223 192.392 55.8204C192.257 55.8363 192.122 55.8523 191.987 55.8682C185.11 34.0046 166.043 45.7929 148.415 49.0436C146.784 46.6796 143.595 46.6096 141.708 44.47C135.215 35.8824 128.719 27.2918 122.226 18.7043C124.758 15.4782 129.8 12.8122 134.081 11.1135ZM146.775 111.973C135.092 113.118 124.678 115.666 116.524 120.498C113.201 122.467 110.155 126.972 107.103 127.801C103.491 116.205 98.4821 105.32 94.6305 91.7149C87.3263 65.9138 104.982 28.4613 119.936 20.2128C119.952 20.3484 119.968 20.4844 119.984 20.6199C118.139 32.0328 134.651 51.3844 141.188 54.0243C141.66 65.107 143.776 74.8426 146.094 85.2257C145.807 85.1221 145.521 85.018 145.235 84.9144C140.614 74.5695 121.911 38.5548 112.833 36.7354C112.73 37.0229 112.627 37.31 112.524 37.5975C115.038 40.3272 117.553 43.0572 120.067 45.7869C126.379 53.7802 132.327 63.305 136.496 73.5641C136.21 73.4604 135.924 73.3564 135.637 73.2528C133.989 70.3708 130.536 67.4978 127.784 65.9253C127.378 65.9732 126.973 66.0211 126.567 66.069C126.631 66.6117 126.695 67.1547 126.759 67.6973C133.329 71.9643 142.298 81.2674 146.071 88.5302C146.306 96.3437 146.54 104.16 146.775 111.973ZM122.156 21.6017C125.086 27.7678 137.722 44.9736 142.998 48.445C142.585 49.5941 142.172 50.744 141.759 51.8932C140.566 51.0711 139.372 50.2488 138.179 49.4267C134.685 43.919 119.458 31.8523 122.156 21.6017ZM174.587 44.3024C175.279 44.3581 175.971 44.4143 176.663 44.47C176.465 46.2818 176.267 48.0939 176.069 49.9057C176.475 49.8578 176.88 49.8099 177.286 49.7621C177.54 49.5945 177.795 49.4267 178.049 49.2592C178.176 48.006 178.302 46.7529 178.429 45.4997C185.438 46.1996 191.746 55.0167 190.917 64.2493C175.147 75.6418 156.566 70.7304 146.176 57.9754C146.581 55.589 146.985 53.2019 147.39 50.8156C156.217 51.2723 164.195 45.6887 174.587 44.3024ZM145.933 48.9239C141.254 63.7719 150.336 78.8891 149.463 96.3844C149.163 102.417 147.16 115.014 151.121 120.953C153.718 124.846 160.431 122.7 162.338 125.407C161.932 125.455 161.526 125.502 161.121 125.55C157.525 124.924 153.377 124.65 151.265 122.174C146.366 116.429 148.536 101.801 148.818 94.3969C149.123 86.3844 146.36 78.0717 144.56 72.1992C142.439 65.2738 141.619 52.0459 145.933 48.9239ZM202.695 45.5237C202.676 51.4078 197.791 57.6664 194.232 60.9687C193.985 60.0349 193.738 59.1008 193.491 58.167C196.559 53.9532 199.627 49.7376 202.695 45.5237ZM202.436 53.8089C201.334 60.4194 199.335 63.2858 194.951 67.0749C195.344 61.4387 199.163 57.1717 202.436 53.8089ZM146.106 60.8728C156.338 71.8742 174.46 77.9805 190.847 67.1467C190.633 68.8229 190.419 70.4991 190.205 72.1753C177.962 77.7197 167.761 92.0055 150.82 90.4459C150.117 81.8837 143.809 69.6674 146.106 60.8728ZM189.369 120.977C187.778 103.164 191.683 72.3636 201.51 63.4112C200.497 77.9679 198.011 92.8806 195.041 106.274C194.087 110.576 194.515 117.779 191.349 120.33C190.689 120.546 190.029 120.761 189.369 120.977ZM192.115 74.4262C192.163 74.8333 192.211 75.2404 192.258 75.6475C192.075 75.2563 191.892 74.8652 191.709 74.4741C191.844 74.4582 191.98 74.4422 192.115 74.4262ZM189.729 75.1206C186.866 88.8668 183.789 104.438 185.217 120.642C185.082 120.657 184.947 120.673 184.812 120.689C178.561 119.371 170.927 120.229 162.67 121.24C160.183 110.5 152.853 103.135 151.06 92.4813C165.952 94.875 179.645 79.8125 189.729 75.1206ZM151.421 99.0424C153.085 102.698 154.749 106.354 156.413 110.01C153.269 111.084 151.255 112.664 150.853 108.19C151.042 105.141 151.232 102.091 151.421 99.0424ZM151.022 113.123C153.169 112.732 155.317 112.34 157.464 111.949C158.674 115.246 159.885 118.543 161.095 121.839C160.03 122.102 158.964 122.366 157.898 122.629C153.819 121.264 151.664 118.867 151.022 113.123ZM146.561 113.649C150.182 132.245 154.443 121.886 163.079 128.208C164.998 134.035 166.918 139.863 168.837 145.689C150.115 147.748 136.481 154.879 123.797 161.325C118.734 150.918 113.67 140.507 108.607 130.1C118.907 121.867 127.542 115.886 146.561 113.649ZM187.315 117.505C187.379 118.047 187.443 118.59 187.507 119.133C187.372 119.149 187.237 119.165 187.102 119.181C187.173 118.622 187.244 118.063 187.315 117.505ZM172.596 121.719C176.747 122.054 180.9 122.39 185.051 122.725C185.067 122.86 185.083 122.996 185.099 123.132C185.147 123.539 185.195 123.946 185.243 124.353C184.972 124.385 184.702 124.417 184.432 124.449C178.881 127.56 170.044 125.314 164.414 125.574C164.199 124.912 163.983 124.249 163.768 123.587C163.872 123.299 163.975 123.012 164.078 122.725C166.917 122.39 169.757 122.054 172.596 121.719ZM187.245 120.402C187.671 124.618 188.455 128.612 189.398 131.704C189.263 131.72 189.128 131.736 188.992 131.752C188.961 131.481 188.929 131.21 188.897 130.938C187.626 129.29 186.463 122.85 187.245 120.402ZM191.994 122.318C191.542 124.297 191.089 126.277 190.637 128.256C190.502 128.272 190.367 128.288 190.232 128.304C190.024 126.54 189.816 124.776 189.609 123.012C190.404 122.781 191.199 122.549 191.994 122.318ZM167.492 127.275C172.1 128.71 180.235 127.775 185.482 126.389C185.85 130.275 186.887 132.515 188.874 134.243C186.976 140.245 185.078 146.248 183.18 152.25C179.623 150.877 176.33 149.929 171.75 149.472C169.52 142.169 167.289 134.865 165.059 127.562C165.87 127.466 166.681 127.37 167.492 127.275ZM172.801 151.412C176.289 152.658 180.011 152.55 182.657 154.788C180.917 159.809 179.178 164.83 177.438 169.85C177.303 169.866 177.168 169.882 177.033 169.898C175.623 163.736 174.211 157.573 172.801 151.412ZM177.704 175.597C177.298 175.645 176.892 175.693 176.487 175.741C178.73 192.848 179.617 207.891 177.797 221.812C176.552 228.7 175.306 235.59 174.061 242.478C174.467 242.43 174.872 242.382 175.278 242.334C180.736 234.774 183.801 191 177.704 175.597Z" fill="#b4f12f"/>
    <defs>
        <linearGradient id="paint0_linear_151_78043" x1="130.548" y1="-269.955" x2="190.82" y2="240.499" gradientUnits="userSpaceOnUse">
            <stop stop-color="#F58448"/>
            <stop offset="1" stop-color="#F05277"/>
        </linearGradient>
    </defs>
</svg>
