<svg xmlns="http://www.w3.org/2000/svg" width="321" height="64" viewBox="0 0 321 64" fill="none">
    <path opacity="0.32" fill-rule="evenodd" clip-rule="evenodd" d="M169.482 79.6763C171.769 88.6231 174.056 97.5727 176.343 106.52C176.749 106.472 177.154 106.424 177.56 106.376C177.814 106.208 178.069 106.04 178.323 105.873C182.27 93.989 186.218 82.1017 190.165 70.2178C195.248 52.5968 198.11 33.7914 201.329 14.8312C202.61 0.0979495 203.892 -14.6394 205.173 -29.3727C205.627 -37.4499 201.634 -46.6839 203.157 -53.4861C206.56 -68.6824 213.04 -82.2402 213.657 -100.54C220.75 -103.595 225.985 -115.984 222.449 -127.167C220.063 -134.715 214.093 -138.665 211.727 -144.887C207.949 -154.825 212.164 -163.715 213.576 -171.108C216.893 -188.484 220.04 -205.058 221.735 -224.076C222.359 -231.081 221.718 -263.947 215.892 -266.723C205.174 -271.32 187.7 -269.081 174.828 -269.716C170.064 -269.429 165.3 -269.142 160.536 -268.854C156.038 -269.668 151.781 -272.898 146.027 -273.332C142.918 -272.965 139.807 -272.598 136.698 -272.231C131.214 -273.574 125.934 -282.852 120.135 -280.181C120 -280.165 119.865 -280.149 119.73 -280.133C119.714 -280.269 119.698 -280.405 119.682 -280.54C122.826 -289.569 126.541 -303.394 133.555 -309.419C136.07 -311.579 140.694 -310.715 143.861 -312.699C147.146 -314.758 156.388 -329.537 153.943 -335.352C151.708 -338.467 143.264 -338.977 138.718 -338.92C135.122 -334.941 133.625 -336.622 129.057 -333.652C128.363 -333.2 123.548 -327.833 122.475 -326.684C120.164 -321.871 117.851 -317.057 115.539 -312.244C105.812 -296.491 87.5159 -276.354 84.2611 -256.546C83.003 -248.892 90.0216 -221.462 92.0833 -214.546C98.937 -191.556 102.142 -169.669 111.87 -151.257C121.091 -133.804 127.88 -115.714 135.041 -94.1462C136.909 -88.5211 140.422 -80.3341 140.014 -72.8583C139.204 -58.0165 126.358 -56.3561 116.953 -48.6731C106.749 -40.337 99.0596 -27.1519 95.1375 -13.9039C81.9185 30.7486 112.416 71.5625 127.119 104.077C133.162 119.321 139.207 134.569 145.25 149.813C145.791 149.75 146.332 149.686 146.873 149.622C146.809 149.079 146.745 148.536 146.681 147.994C138.938 130.849 134.275 111.009 124.896 95.672C131.399 87.6869 154.769 81.411 169.482 79.6763ZM140.986 -337.124C140.29 -332.752 138.905 -330.529 139.584 -324.576C139.298 -324.68 139.011 -324.784 138.725 -324.888C137.966 -329.265 136.892 -334.582 139.411 -336.525C139.936 -336.725 140.461 -336.925 140.986 -337.124ZM144.326 -336.693C146.283 -336.374 148.24 -336.054 150.197 -335.735C149.942 -335.568 149.688 -335.4 149.433 -335.232C148.972 -334.49 148.511 -333.748 148.05 -333.005C146.905 -333.42 145.759 -333.835 144.614 -334.25C143.971 -331.561 143.328 -328.87 142.685 -326.181C142.653 -326.452 142.621 -326.723 142.589 -326.995C141.985 -327.474 141.38 -327.953 140.775 -328.432C141.331 -331.161 141.696 -335.504 144.326 -336.693ZM151.461 -335.472C152.44 -333.897 152.363 -333.074 152.442 -330.635C151.567 -331.081 150.692 -331.529 149.817 -331.976C150.365 -333.141 150.913 -334.307 151.461 -335.472ZM136.048 -333.652C136.007 -331.446 133.991 -326.295 132.545 -324.983C132.259 -325.087 131.973 -325.191 131.686 -325.295C131.654 -325.566 131.622 -325.837 131.59 -326.109C130.961 -327.96 130.332 -329.813 129.703 -331.664C129.973 -331.696 130.243 -331.728 130.514 -331.76C132.358 -332.391 134.204 -333.021 136.048 -333.652ZM147.431 -331.281C147.082 -329.169 146.445 -327.79 145.119 -326.468C145.42 -328.479 145.927 -330.171 147.431 -331.281ZM128.416 -328.623C129.62 -325.14 129.747 -321.605 134.145 -321.87C136.443 -322.142 138.742 -322.413 141.04 -322.685C141.111 -321.319 140.772 -321.703 141.686 -320.697C145.229 -322.81 148.063 -326.089 149.197 -330.251C149.5 -330.012 149.802 -329.773 150.104 -329.533C150.828 -329.206 151.552 -328.879 152.276 -328.551C152.292 -328.416 152.308 -328.28 152.324 -328.144C149.453 -323.158 145.351 -319.295 142.452 -314.184C137.153 -313.406 132.753 -312.064 130.31 -309.036C120.706 -297.13 118.015 -278.781 111.72 -264.329C109.686 -260.65 107.651 -256.969 105.617 -253.29C103.334 -244.515 112.385 -233.851 112.072 -226.399C111.471 -212.069 125.216 -196.756 123.829 -189.402C122.446 -187.176 121.064 -184.948 119.681 -182.722C120.221 -182.785 120.762 -182.849 121.303 -182.913C122.766 -184.462 124.229 -186.01 125.691 -187.559C127.006 -181.121 139.016 -164.441 143.359 -163.23C143.295 -163.772 143.231 -164.315 143.168 -164.858C141.544 -167.005 139.92 -169.153 138.297 -171.299C146.041 -169.278 154.635 -165.458 163.186 -165.983C160.179 -170.672 148.207 -169.374 143.522 -172.329C151.985 -176.454 143.936 -185.211 146.115 -188.732C149.345 -191.487 154.869 -193.145 155.297 -198.071C149.227 -195.311 145.842 -187.705 137.144 -188.085C134.604 -189.889 133.854 -193.855 132.391 -197.017C135.954 -197.854 141.515 -200.409 141.861 -203.914C138.338 -203.269 134.01 -202.405 131.507 -201.04C130.639 -202.589 129.771 -204.137 128.904 -205.686C131.221 -205.862 131.757 -205.733 132.41 -207.338C131.87 -207.274 131.329 -207.21 130.788 -207.146C132.525 -208.019 134.517 -207.759 135.965 -208.583C135.901 -209.126 135.837 -209.669 135.773 -210.211C132.593 -209.286 129.411 -208.359 126.231 -207.434C125.928 -207.673 125.626 -207.912 125.323 -208.152C124.95 -214.997 129.548 -219.109 127.773 -225.776C127.097 -225.696 126.421 -225.616 125.745 -225.537C125.727 -223.704 126.659 -224.808 125.125 -223.813C123.654 -223.07 122.383 -222.648 120.711 -222.879C120.696 -223.014 120.68 -223.15 120.664 -223.286C121.938 -224.738 123.717 -225.745 124.24 -227.835C123.7 -227.772 123.159 -227.708 122.618 -227.644C121.601 -226.974 120.582 -226.303 119.565 -225.632C120.293 -240.8 137.602 -244.779 139.879 -255.684C133.592 -253.002 118.708 -235.586 118.013 -228.338C117.678 -228.849 117.344 -229.36 117.01 -229.871C116.604 -229.823 116.199 -229.775 115.793 -229.727C115.857 -229.185 115.921 -228.641 115.985 -228.099C122.767 -217.444 125.996 -208.128 125.378 -193.713C125.092 -193.816 124.805 -193.92 124.519 -194.024C121.401 -204.813 109.907 -218.284 114.646 -232.481C115.474 -231.736 114.686 -232.194 115.959 -231.81C114.307 -242.048 117.753 -250.173 125.588 -254.822C127.782 -256.124 131.101 -256.25 132.147 -258.486C131.066 -258.358 129.984 -258.231 128.903 -258.103C121.759 -254.781 115.76 -250.101 114.308 -242.347C114.173 -242.331 114.037 -242.315 113.902 -242.299C113.854 -242.706 113.806 -243.113 113.758 -243.52C116.341 -258.459 123.392 -269.253 142.163 -271.225C143.157 -269.271 146.459 -266.362 148.56 -265.789C148.512 -266.197 148.464 -266.604 148.416 -267.011C146.872 -268.479 145.328 -269.948 143.785 -271.417C162.997 -272.456 176.233 -255.127 179.616 -236.025C179.481 -236.009 179.345 -235.993 179.21 -235.977C177.997 -239.89 172.061 -249.886 168.418 -250.799C168.466 -250.392 168.514 -249.985 168.562 -249.578C173.346 -242.215 192.544 -220.322 190.986 -209.301C190.574 -206.385 187.707 -205.206 187.339 -201.854C186.199 -191.477 190.429 -184.45 183.89 -178.746C189.416 -208.489 175.374 -228.014 162.648 -243.927C159.821 -247.461 155.947 -258.053 151.76 -259.564C151.824 -259.021 151.888 -258.478 151.952 -257.935C162.379 -238.372 184.535 -224.921 182.523 -193.856C182.39 -189.163 182.257 -184.469 182.124 -179.776C172.04 -186.496 173.165 -197.346 172.255 -211.217C171.849 -211.169 171.444 -211.121 171.038 -211.073C170.84 -190.819 170.306 -189.239 182.006 -177.286C181.06 -177.174 180.113 -177.062 179.167 -176.951C174.602 -178.183 171.347 -180.602 168.474 -183.943C167.563 -192.566 173.997 -224.31 165.471 -226.925C165.519 -226.518 165.567 -226.111 165.615 -225.704C172.673 -212.263 165.202 -200.195 166.564 -186.194C166.278 -186.297 165.992 -186.401 165.705 -186.505C161.502 -196.689 164.039 -207.352 164.497 -217.73C164.941 -227.788 160.263 -236.717 156.659 -242.394C155.061 -244.913 154.495 -247.644 151.431 -248.381C153.955 -241.111 159.188 -235.465 161.773 -226.901C165.861 -213.357 158.511 -203.64 162.243 -191.462C162.108 -191.446 161.972 -191.43 161.837 -191.414C160.454 -195 157.793 -198.389 157.919 -203.746C158.06 -209.761 159.877 -216.915 157.551 -224.339C155.244 -231.703 150.416 -236.12 146.877 -241.652C145.516 -243.779 144.692 -249.916 142.482 -251.039C142.674 -249.411 142.866 -247.782 143.057 -246.154C147.014 -237.976 153.069 -232.749 155.976 -223.741C159.058 -214.191 154.185 -204.455 158.113 -195.101C161.294 -187.529 173.175 -179.727 169.723 -166.343C164.889 -170.588 160.389 -181.058 153.825 -182.626C154.159 -182.115 154.493 -181.604 154.827 -181.093C157.852 -175.835 164.996 -167.139 170.011 -163.9C170.281 -163.932 170.551 -163.964 170.822 -163.996C170.909 -164.419 170.997 -164.842 171.084 -165.265C172.425 -169.714 170.137 -175.555 169.311 -180.327C173.528 -177.742 176.117 -174.842 182.555 -176.112C182.097 -170.126 177.343 -170.28 175.951 -165.84C176.492 -165.904 177.033 -165.967 177.573 -166.031C179.306 -167.612 181.04 -169.192 182.773 -170.773C182.579 -160.224 176.98 -158.502 175.146 -151.712C175.687 -151.776 176.228 -151.839 176.769 -151.903C181.269 -158.673 184.905 -162.69 184.012 -174.221C186.218 -173.013 187.948 -172.365 191.098 -173.407C191.257 -174.388 191.416 -175.37 191.574 -176.352C191.169 -176.304 190.763 -176.256 190.357 -176.208C190.016 -175.618 189.674 -175.027 189.332 -174.436C186.684 -174.443 186.126 -175.118 184.583 -176.352C193.058 -189.479 195.569 -204.238 197.613 -222.879C198.192 -228.16 200.227 -238.551 197.245 -243.472C190.437 -245.419 183.626 -247.367 176.818 -249.315C173.93 -257.535 168.724 -261.945 163.615 -267.154C178.088 -269.045 206.006 -268.856 216.18 -264.281C229.265 -225.764 211.367 -192.403 209.763 -161.577C209.628 -161.561 209.492 -161.545 209.357 -161.529C209.053 -165.625 208.955 -175.925 205.914 -176.807C207.048 -167.174 208.182 -157.537 209.316 -147.904C209.284 -148.176 209.252 -148.447 209.22 -148.718C207.708 -152.254 206.194 -155.791 204.682 -159.326C204.276 -159.279 203.87 -159.231 203.465 -159.183C203.577 -158.233 203.688 -157.283 203.8 -156.333C206.35 -150.716 209.105 -145.974 211.753 -141.175C195.743 -139.555 193.333 -127.513 189.599 -116.272C189.177 -116.36 188.756 -116.448 188.334 -116.535C181.865 -125.789 182.555 -140.077 173.384 -145.725C172.978 -145.677 172.572 -145.629 172.167 -145.582C174.61 -142.293 177.054 -139.004 179.497 -135.716C183.169 -128.793 183.071 -118.917 188.574 -114.5C188.065 -114.165 187.556 -113.83 187.047 -113.494C186.625 -113.582 186.204 -113.67 185.782 -113.758C180.939 -119.487 180.445 -130.145 175.441 -135.237C165.351 -145.502 141.584 -141.257 134.571 -129.586C132.135 -125.533 131.733 -121.026 129.972 -116.248C128.801 -121.522 128.32 -129.642 127.624 -136.195C127.084 -136.131 126.543 -136.067 126.002 -136.003C126.147 -132.444 126.292 -128.883 126.437 -125.324C122.981 -140.255 113.031 -152.706 107.21 -166.391C100.109 -183.082 97.9324 -201.688 92.5814 -220.795C90.3968 -232.368 88.2118 -243.944 86.0272 -255.517C88.2441 -271.474 103.783 -290.438 111.678 -303.121C116.036 -310.121 121.791 -324.164 128.416 -328.623ZM136.623 -328.767C136.664 -327.259 136.704 -325.749 136.745 -324.241C136.61 -324.225 136.474 -324.209 136.339 -324.193C136.188 -324.313 136.037 -324.433 135.886 -324.552C135.496 -326.925 135.351 -327.676 136.623 -328.767ZM123.118 -279.295C125.955 -275.102 130.235 -274.08 134.312 -271.536C121.678 -267.129 113.02 -258.345 111.944 -244.957C111.637 -241.136 113.273 -237.199 112.379 -234.277C111.114 -238.235 106.024 -246.89 107.384 -252.26C108.766 -254.487 110.149 -256.714 111.532 -258.941C113.939 -265.278 116.346 -271.617 118.753 -277.954C120.208 -278.401 121.663 -278.848 123.118 -279.295ZM136.366 -268.064C134.398 -267.496 135.126 -268.194 134.482 -266.604C137.719 -265.885 140.957 -265.167 144.194 -264.448C142.676 -267.329 139.265 -267.001 136.366 -268.064ZM155.86 -266.651C155.32 -266.588 154.779 -266.524 154.238 -266.46C154.286 -266.053 154.334 -265.646 154.382 -265.239C159.606 -264.323 162.368 -260.687 166.959 -259.707C166.025 -261.875 164.619 -262.351 163.187 -263.802C160.745 -264.752 158.302 -265.702 155.86 -266.651ZM178.776 -246.657C184.741 -244.885 190.708 -243.112 196.673 -241.341C196.351 -233.599 196.029 -225.855 195.706 -218.113C194.534 -208.889 191.752 -200.607 190.111 -192.276C189.976 -192.26 189.841 -192.244 189.706 -192.228C189.044 -197.552 190.091 -201.09 190.654 -205.135C191.362 -204.943 192.07 -204.752 192.778 -204.56C192.149 -210.414 192.412 -217.037 189.954 -221.562C187.296 -225.512 184.637 -229.464 181.979 -233.415C180.77 -236.516 178.009 -245.511 178.776 -246.657ZM124.786 -233.678C122.653 -232.939 121.853 -232.198 121.519 -229.991C122.06 -230.054 122.601 -230.118 123.142 -230.182C124.714 -231.41 125.291 -231.693 124.786 -233.678ZM126.224 -221.466C125.708 -220.029 125.191 -218.592 124.675 -217.156C124.412 -218.225 124.149 -219.295 123.886 -220.364C124.665 -220.732 125.445 -221.099 126.224 -221.466ZM128.332 -203.554C129.144 -201.312 129.957 -199.068 130.769 -196.826C130.634 -196.81 130.498 -196.794 130.363 -196.778C129.435 -197.917 130.203 -197.427 128.597 -197.807C128.509 -199.723 128.421 -201.639 128.332 -203.554ZM137.233 -201.303C135.945 -200.601 134.657 -199.899 133.369 -199.196C134.338 -200.424 135.172 -200.848 137.233 -201.303ZM129.147 -196.634C129.21 -196.091 129.274 -195.548 129.338 -195.006C129.203 -194.99 129.068 -194.974 128.933 -194.958C129.004 -195.516 129.075 -196.075 129.147 -196.634ZM130.651 -194.335C132.475 -189.323 134.298 -184.309 136.122 -179.297C135.231 -179.88 134.34 -180.463 133.449 -181.045C131.85 -184.469 129.205 -189.536 130.651 -194.335ZM127.406 -193.952C128.639 -183.68 133.937 -172.142 145.428 -177.094C144.377 -174.743 143.093 -174.371 140.993 -172.856C133.611 -172.74 123.946 -185.7 127.406 -193.952ZM143.777 -187.63C144.502 -184.965 145.227 -182.298 145.952 -179.633C145.563 -179.449 145.173 -179.265 144.783 -179.082C143.908 -178.143 142.275 -177.656 140.775 -178.196C137.69 -179.151 135.863 -182.077 135.307 -186.218C138.302 -186.114 141.35 -186.668 143.777 -187.63ZM156.828 -139.643C162.891 -138.004 167.551 -138.337 172.148 -135.261C186.764 -125.479 179.937 -104.396 167.036 -98.3366C151.931 -91.242 147.329 -101.328 139.404 -102.503C139.467 -101.961 139.531 -101.418 139.595 -100.875C158.944 -87.6072 173.907 -95.8919 182.442 -114.189C184.777 -111.902 187.24 -111.014 190.34 -113.47C190.372 -113.199 190.404 -112.928 190.435 -112.656C194.671 -104.611 198.752 -94.0009 211.725 -99.4859C211.569 -97.7992 211.521 -97.03 210.486 -96.0377C203.605 -90.4177 193.83 -99.792 186.958 -100.276C179.056 -100.833 174.041 -95.8458 168.374 -93.9545C163.282 -92.255 142.88 -91.1231 137.81 -91.5839C137.364 -93.0443 136.918 -94.5056 136.472 -95.966C138.36 -96.7808 139.337 -96.762 139.835 -98.8395C138.499 -98.5443 137.163 -98.2487 135.827 -97.9535C134.29 -102.862 132.752 -107.772 131.215 -112.68C131.477 -126.463 141.079 -137.864 156.828 -139.643ZM212.35 -139.595C224.182 -129.853 224.549 -95.4827 203.373 -100.563C183.571 -105.315 193.185 -137.7 212.35 -139.595ZM187.197 -98.2408C194.367 -95.3443 201.22 -91.0731 211.179 -93.6431C210.899 -78.7087 203.786 -66.3588 201.129 -53.2466C199.269 -44.064 203.003 -37.5503 193.002 -34.9521C192.954 -35.3592 192.906 -35.7662 192.858 -36.1733C194.509 -44.0468 199.213 -50.9303 199.695 -58.4429C193.708 -55.3623 192.333 -41.3733 191.022 -34.3055C176.409 -32.2628 142.15 -49.0877 136.013 -57.9401C135.997 -58.0757 135.981 -58.2117 135.965 -58.3472C143.585 -62.524 142.838 -79.1797 138.503 -89.1894C147.938 -91.5382 157.903 -88.7047 168.613 -91.9191C175.157 -93.8829 178.889 -97.1908 187.197 -98.2408ZM188.347 -88.4709C187.807 -88.4071 187.266 -88.3432 186.725 -88.2793C186.901 -86.787 187.076 -85.2938 187.252 -83.8015C186.659 -76.0278 186.066 -68.252 185.474 -60.4783C183.536 -53.6466 181.599 -46.8124 179.661 -39.9807C186.721 -43.5899 189.656 -76.2636 188.347 -88.4709ZM168.196 -67.5184C165.6 -66.0719 161.856 -46.1206 166.775 -44.6502C165.462 -54.4376 167.949 -60.0617 168.196 -67.5184ZM134.081 -56.8865C140.528 -47.2465 172.507 -32.4942 185.988 -31.6476C195.194 -31.0695 199.433 -35.9199 202.663 -40.2201C204.515 -26.8379 199.252 -18.5777 192.392 -12.1796C192.257 -12.1637 192.122 -12.1477 191.987 -12.1318C185.11 -33.9954 166.043 -22.2071 148.415 -18.9564C146.784 -21.3204 143.595 -21.3904 141.708 -23.53C135.215 -32.1176 128.719 -40.7082 122.226 -49.2957C124.758 -52.5218 129.8 -55.1878 134.081 -56.8865ZM146.775 43.9731C135.092 45.1176 124.678 47.6664 116.524 52.4978C113.201 54.4667 110.155 58.9723 107.103 59.8012C103.491 48.2055 98.4821 37.3195 94.6305 23.7149C87.3263 -2.08623 104.982 -39.5387 119.936 -47.7872C119.952 -47.6516 119.968 -47.5156 119.984 -47.3801C118.139 -35.9672 134.651 -16.6156 141.188 -13.9757C141.66 -2.89303 143.776 6.84256 146.094 17.2257C145.807 17.1221 145.521 17.018 145.235 16.9144C140.614 6.5695 121.911 -29.4452 112.833 -31.2646C112.73 -30.9771 112.627 -30.69 112.524 -30.4025C115.038 -27.6728 117.553 -24.9428 120.067 -22.2131C126.379 -14.2198 132.327 -4.69496 136.496 5.56407C136.21 5.46044 135.924 5.35637 135.637 5.25278C133.989 2.37078 130.536 -0.502237 127.784 -2.07466C127.378 -2.02677 126.973 -1.97888 126.567 -1.93099C126.631 -1.38835 126.695 -0.845314 126.759 -0.302673C133.329 3.96434 142.298 13.2674 146.071 20.5302C146.306 28.3437 146.54 36.1596 146.775 43.9731ZM122.156 -46.3983C125.086 -40.2322 137.722 -23.0264 142.998 -19.555C142.585 -18.4059 142.172 -17.256 141.759 -16.1068C140.566 -16.9289 139.372 -17.7512 138.179 -18.5733C134.685 -24.081 119.458 -36.1477 122.156 -46.3983ZM174.587 -23.6976C175.279 -23.6419 175.971 -23.5857 176.663 -23.53C176.465 -21.7182 176.267 -19.9061 176.069 -18.0943C176.475 -18.1422 176.88 -18.1901 177.286 -18.2379C177.54 -18.4055 177.795 -18.5733 178.049 -18.7408C178.176 -19.994 178.302 -21.2471 178.429 -22.5003C185.438 -21.8004 191.746 -12.9833 190.917 -3.75075C175.147 7.64176 156.566 2.73045 146.176 -10.0246C146.581 -12.411 146.985 -14.7981 147.39 -17.1844C156.217 -16.7277 164.195 -22.3113 174.587 -23.6976ZM145.933 -19.0761C141.254 -4.22807 150.336 10.8891 149.463 28.3844C149.163 34.4174 147.16 47.0136 151.121 52.9528C153.718 56.8458 160.431 54.6997 162.338 57.4067C161.932 57.4546 161.526 57.5025 161.121 57.5504C157.525 56.9237 153.377 56.65 151.265 54.174C146.366 48.429 148.536 33.8009 148.818 26.3969C149.123 18.3844 146.36 10.0717 144.56 4.19918C142.439 -2.72616 141.619 -15.9541 145.933 -19.0761ZM202.695 -22.4763C202.676 -16.5922 197.791 -10.3336 194.232 -7.03129C193.985 -7.96506 193.738 -8.8992 193.491 -9.83297C196.559 -14.0468 199.627 -18.2624 202.695 -22.4763ZM202.436 -14.1911C201.334 -7.58058 199.335 -4.71416 194.951 -0.92513C195.344 -6.56127 199.163 -10.8283 202.436 -14.1911ZM146.106 -7.12717C156.338 3.87425 174.46 9.98052 190.847 -0.853295C190.633 0.822913 190.419 2.49912 190.205 4.17533C177.962 9.71972 167.761 24.0055 150.82 22.4459C150.117 13.8837 143.809 1.66741 146.106 -7.12717ZM189.369 52.9768C187.778 35.164 191.683 4.36361 201.51 -4.5888C200.497 9.96788 198.011 24.8806 195.041 38.2741C194.087 42.5764 194.515 49.7788 191.349 52.3303C190.689 52.5456 190.029 52.7614 189.369 52.9768ZM192.115 6.42622C192.163 6.8333 192.211 7.24037 192.258 7.64747C192.075 7.25631 191.892 6.86524 191.709 6.47411C191.844 6.45817 191.98 6.44217 192.115 6.42622ZM189.729 7.12064C186.866 20.8668 183.789 36.4382 185.217 52.6415C185.082 52.6575 184.947 52.6735 184.812 52.6894C178.561 51.3708 170.927 52.2293 162.67 53.2401C160.183 42.5001 152.853 35.1349 151.06 24.4813C165.952 26.875 179.645 11.8125 189.729 7.12064ZM151.421 31.0424C153.085 34.6976 154.749 38.3544 156.413 42.0096C153.269 43.0841 151.255 44.6641 150.853 40.1897C151.042 37.1407 151.232 34.0914 151.421 31.0424ZM151.022 45.1225C153.169 44.7315 155.317 44.3401 157.464 43.9492C158.674 47.2456 159.885 50.5428 161.095 53.8388C160.03 54.102 158.964 54.3658 157.898 54.629C153.819 53.2645 151.664 50.8671 151.022 45.1225ZM146.561 45.6493C150.182 64.2446 154.443 53.8862 163.079 60.2084C164.998 66.0345 166.918 71.8627 168.837 77.6888C150.115 79.7479 136.481 86.8793 123.797 93.3253C118.734 82.9179 113.67 72.5074 108.607 62.1C118.907 53.8669 127.542 47.8858 146.561 45.6493ZM187.315 49.5047C187.379 50.0473 187.443 50.5903 187.507 51.133C187.372 51.1489 187.237 51.1649 187.102 51.1809C187.173 50.6223 187.244 50.0633 187.315 49.5047ZM172.596 53.7191C176.747 54.0544 180.9 54.3895 185.051 54.7248C185.067 54.8604 185.083 54.9964 185.099 55.1319C185.147 55.539 185.195 55.9461 185.243 56.3531C184.972 56.3851 184.702 56.417 184.432 56.4489C178.881 59.5605 170.044 57.3136 164.414 57.5744C164.199 56.9121 163.983 56.2491 163.768 55.5868C163.872 55.2994 163.975 55.0123 164.078 54.7248C166.917 54.3896 169.757 54.0543 172.596 53.7191ZM187.245 52.4021C187.671 56.6183 188.455 60.6121 189.398 63.7045C189.263 63.7204 189.128 63.7364 188.992 63.7524C188.961 63.4809 188.929 63.2098 188.897 62.9382C187.626 61.2895 186.463 54.85 187.245 52.4021ZM191.994 54.3178C191.542 56.297 191.089 58.2771 190.637 60.2563C190.502 60.2723 190.367 60.2883 190.232 60.3042C190.024 58.5403 189.816 56.7761 189.609 55.0122C190.404 54.7808 191.199 54.5491 191.994 54.3178ZM167.492 59.2745C172.1 60.7104 180.235 59.775 185.482 58.3885C185.85 62.2752 186.887 64.5148 188.874 66.2428C186.976 72.2447 185.078 78.248 183.18 84.25C179.623 82.8771 176.33 81.9294 171.75 81.4722C169.52 74.1693 167.289 66.8648 165.059 59.5619C165.87 59.4661 166.681 59.3703 167.492 59.2745ZM172.801 83.4119C176.289 84.6584 180.011 84.5499 182.657 86.7882C180.917 91.8085 179.178 96.8302 177.438 101.85C177.303 101.866 177.168 101.882 177.033 101.898C175.623 95.7365 174.211 89.5734 172.801 83.4119ZM177.704 107.597C177.298 107.645 176.892 107.693 176.487 107.741C178.73 124.848 179.617 139.891 177.797 153.812C176.552 160.7 175.306 167.59 174.061 174.478C174.467 174.43 174.872 174.382 175.278 174.334C180.736 166.774 183.801 123 177.704 107.597Z" fill="#b4f12f"/>
    <defs>
        <linearGradient id="paint0_linear_151_78225" x1="130.548" y1="-337.955" x2="190.82" y2="172.499" gradientUnits="userSpaceOnUse">
            <stop stop-color="#F58448"/>
            <stop offset="1" stop-color="#F05277"/>
        </linearGradient>
    </defs>
</svg>
