<?xml version="1.0" encoding="utf-8"?>
<!-- Generator: Adobe Illustrator 27.9.0, SVG Export Plug-In . SVG Version: 6.00 Build 0)  -->
<svg version="1.1" id="Слой_1" xmlns="http://www.w3.org/2000/svg" xmlns:xlink="http://www.w3.org/1999/xlink" x="0px" y="0px"
     viewBox="0 0 512 182.37" style="enable-background:new 0 0 512 182.37;" xml:space="preserve">
<style type="text/css">
	.st0{fill:#B4F12F;}
	.st1{fill-rule:evenodd;clip-rule:evenodd;fill:#B4F12F;}
	.st2{fill:#FFFFFF;}
    .st3{fill:none;}
</style>
    <g>
	<g>
		<path class="st0" d="M190.62,91.05c-8.15-17.91-27.51-30.17-46.23-42.03c-15.38-9.74-31.3-19.82-38.51-31.81L97.9,3.97
			l-7.97,13.25C82.71,29.2,66.8,39.28,51.41,49.02C32.69,60.88,13.34,73.15,5.18,91.05c-8.14,17.86-6.6,39.21,4.02,55.72
			c9.48,14.74,24.45,23.2,41.07,23.2c22.78,0,38.76-13.84,47.63-24.41c8.87,10.57,24.85,24.41,47.64,24.41
			c16.61,0,31.58-8.46,41.06-23.2C197.22,130.27,198.76,108.92,190.62,91.05z M170.94,136.69c-5.99,9.31-15.25,14.65-25.4,14.65
			c-24.79,0-39.3-26.06-39.43-26.3l-0.14-0.26c-0.78-1.46-1.32-3.04-1.55-4.68c-0.51-3.6-0.38-7.78,1.3-12.07
			c4.57-11.68,6.58-13.72,6.58-13.72s-9.29,5.82-14.45,15.14c-5.16-9.32-14.45-15.14-14.45-15.14s2.01,2.04,6.58,13.72
			c1.78,4.55,1.82,9,1.2,12.73c-0.25,1.5-0.76,2.94-1.47,4.27l0,0c-0.14,0.27-14.41,26.3-39.43,26.3
			c-10.16,0-19.41-5.35-25.41-14.65c-7.23-11.23-8.27-25.76-2.73-37.92c5.86-12.86,22.83-23.61,39.25-34.01
			c13.16-8.34,26.66-16.88,36.52-27.48c9.87,10.6,23.37,19.15,36.52,27.48c16.42,10.4,33.39,21.15,39.25,34.01
			C179.21,110.93,178.17,125.46,170.94,136.69z"/>
        <path class="st0" d="M36.2,126.41c0,0,2.95,10.48,14.56,7.77C50.76,134.17,36.07,143.44,36.2,126.41z"/>
        <path class="st0" d="M160.71,126.41c0,0-2.95,10.48-14.56,7.77C146.15,134.17,160.84,143.44,160.71,126.41z"/>
        <path class="st1" d="M82.84,64.33c0,0-34.19,16.4-48.97,42.31C33.87,106.65,35.63,82.96,82.84,64.33z"/>
        <path class="st0" d="M97.9,154.77C97.9,154.77,97.9,154.78,97.9,154.77C97.9,154.78,97.9,154.77,97.9,154.77
			c-30.47,36.5-68.69,17.85-68.69,17.85c15.23,10.63,30.7,9.73,30.7,9.73c25-0.55,37.99-13.64,37.99-13.64c0,0,0,0,0,0c0,0,0,0,0,0
			c0,0,12.99,13.09,37.99,13.64c0,0,15.46,0.9,30.7-9.73C166.59,172.62,128.37,191.27,97.9,154.77z"/>
	</g>
</g>
    <g>
	<path class="st0" d="M242.44,30.28V0h15.08v81.84h-15.08v-6.9c-4.44,5.69-10.76,8.53-18.94,8.53c-7.87,0-14.61-2.96-20.23-8.89
		c-5.54-6-8.3-13.33-8.3-21.98c0-8.57,2.77-15.86,8.3-21.86c5.61-6,12.35-9,20.23-9C231.68,21.75,237.99,24.59,242.44,30.28z
		 M214.61,64.54c3.19,3.04,7.09,4.56,11.69,4.56c4.68,0,8.54-1.52,11.57-4.56c3.04-3.12,4.56-7.09,4.56-11.93
		c0-4.83-1.52-8.77-4.56-11.81c-3.04-3.12-6.9-4.68-11.57-4.68c-4.68,0-8.57,1.56-11.69,4.68c-3.04,3.04-4.56,6.98-4.56,11.81
		C210.05,57.45,211.57,61.42,214.61,64.54z"/>
        <path class="st2" d="M367.53,58.81h-44.08c1.95,7.33,7.44,10.99,16.49,10.99c5.77,0,10.13-1.95,13.09-5.85l12.16,7.02
		c-5.77,8.34-14.26,12.51-25.49,12.51c-9.67,0-17.42-2.92-23.27-8.77s-8.77-13.21-8.77-22.1c0-8.73,2.88-16.06,8.65-21.98
		c5.69-5.92,13.09-8.89,22.21-8.89c8.65,0,15.71,2.96,21.16,8.89c5.61,5.92,8.42,13.25,8.42,21.98
		C368.12,54.25,367.92,56.31,367.53,58.81z M323.22,47.12h29.81c-0.86-3.82-2.59-6.74-5.2-8.77c-2.61-2.03-5.71-3.04-9.29-3.04
		c-4.05,0-7.41,1.03-10.06,3.1C325.83,40.47,324.08,43.38,323.22,47.12z"/>
        <path class="st2" d="M390.22,39.99c0,2.5,3.55,4.64,10.64,6.43c2.49,0.55,4.75,1.19,6.78,1.93c2.03,0.74,4.07,1.79,6.14,3.16
		c2.06,1.36,3.68,3.18,4.85,5.44c1.17,2.26,1.75,4.87,1.75,7.83c0,6-2.26,10.64-6.78,13.91c-4.52,3.2-10.09,4.79-16.72,4.79
		c-12,0-20.19-4.64-24.55-13.91l13.09-7.37c1.79,5.07,5.61,7.6,11.46,7.6c5.38,0,8.07-1.68,8.07-5.03c0-2.49-3.55-4.64-10.64-6.43
		c-2.65-0.7-4.91-1.4-6.78-2.1c-1.87-0.7-3.9-1.73-6.08-3.1c-2.18-1.36-3.84-3.12-4.97-5.26c-1.13-2.14-1.7-4.66-1.7-7.54
		c0-5.77,2.1-10.29,6.31-13.56c4.29-3.35,9.59-5.03,15.9-5.03c4.75,0,9.08,1.07,12.98,3.22c3.9,2.14,6.97,5.2,9.24,9.18l-12.86,7.01
		c-1.87-3.98-4.99-5.96-9.35-5.96c-1.95,0-3.57,0.45-4.85,1.34C390.86,37.43,390.22,38.58,390.22,39.99z"/>
        <path class="st2" d="M440.96,39.99c0,2.5,3.55,4.64,10.64,6.43c2.49,0.55,4.75,1.19,6.78,1.93c2.03,0.74,4.07,1.79,6.14,3.16
		c2.06,1.36,3.68,3.18,4.85,5.44c1.17,2.26,1.75,4.87,1.75,7.83c0,6-2.26,10.64-6.78,13.91c-4.52,3.2-10.09,4.79-16.72,4.79
		c-12,0-20.19-4.64-24.55-13.91l13.09-7.37c1.79,5.07,5.61,7.6,11.46,7.6c5.38,0,8.07-1.68,8.07-5.03c0-2.49-3.55-4.64-10.64-6.43
		c-2.65-0.7-4.91-1.4-6.78-2.1c-1.87-0.7-3.9-1.73-6.08-3.1c-2.18-1.36-3.84-3.12-4.97-5.26c-1.13-2.14-1.7-4.66-1.7-7.54
		c0-5.77,2.1-10.29,6.31-13.56c4.29-3.35,9.59-5.03,15.9-5.03c4.75,0,9.08,1.07,12.98,3.22c3.9,2.14,6.97,5.2,9.24,9.18l-12.86,7.01
		c-1.87-3.98-4.99-5.96-9.35-5.96c-1.95,0-3.57,0.45-4.85,1.34C441.6,37.43,440.96,38.58,440.96,39.99z"/>
        <path class="st0" d="M293.18,25.08c-3.2,1.91-5.46,4.7-6.78,8.36V23.38h-15.08v58.46h0.01v30.17c-4.44-5.69-10.76-8.53-18.94-8.53
		c-7.87,0-14.61,3-20.23,9c-5.54,6-8.3,13.29-8.3,21.86c0,8.65,2.77,15.98,8.3,21.98c5.61,5.92,12.35,8.89,20.23,8.89
		c8.18,0,14.5-2.84,18.94-8.54v6.9h15.08V81.73h-0.01V53.9c0-5.61,1.79-9.63,5.38-12.04c3.66-2.49,7.79-3.43,12.39-2.81V22.21
		C300.03,22.21,296.37,23.17,293.18,25.08z M266.76,146.27c-3.04,3.04-6.9,4.56-11.58,4.56c-4.6,0-8.5-1.52-11.69-4.56
		c-3.04-3.12-4.56-7.09-4.56-11.93c0-4.83,1.52-8.77,4.56-11.81c3.12-3.12,7.02-4.68,11.69-4.68c4.68,0,8.53,1.56,11.58,4.68
		c3.04,3.04,4.56,6.98,4.56,11.81C271.32,139.18,269.8,143.16,266.76,146.27z"/>
        <path class="st2" d="M350,156.33c-5.92,5.92-13.25,8.89-21.98,8.89c-8.73,0-16.06-2.96-21.98-8.89
		c-5.92-5.92-8.89-13.25-8.89-21.98c0-8.65,2.96-15.94,8.89-21.86c6-6,13.33-9,21.98-9c8.65,0,15.98,3,21.98,9c6,6,9,13.29,9,21.86
		C359.01,143,356.01,150.33,350,156.33z M316.68,145.92c3.04,3.04,6.82,4.56,11.34,4.56c4.52,0,8.3-1.52,11.34-4.56
		c3.04-3.04,4.56-6.9,4.56-11.58c0-4.68-1.52-8.53-4.56-11.57c-3.04-3.04-6.82-4.56-11.34-4.56c-4.52,0-8.3,1.52-11.34,4.56
		c-2.96,3.12-4.44,6.98-4.44,11.57C312.24,138.95,313.72,142.8,316.68,145.92z"/>
        <path class="st2" d="M423.2,141.13l9.94-36.01h16.02l-18.59,58.46h-14.38l-10.76-35.43l-10.76,35.43h-14.38l-18.59-58.46h16.02
		l9.94,35.89l10.64-35.89h14.26L423.2,141.13z"/>
        <path class="st2" d="M489.84,103.48c6.47,0,11.73,2.14,15.78,6.43c4.21,4.37,6.31,10.29,6.31,17.77v35.89h-15.08v-34.02
		c0-3.82-1.03-6.78-3.1-8.89c-2.07-2.1-4.89-3.16-8.48-3.16c-3.97,0-7.11,1.23-9.41,3.68c-2.3,2.46-3.45,6.06-3.45,10.81v31.57
		h-15.08v-58.46h15.08v6.55C476,106.21,481.81,103.48,489.84,103.48z"/>
</g>
</svg>
