<svg xmlns="http://www.w3.org/2000/svg" width="35" height="36" viewBox="5 15 254 280" fill="none">
    <path d="M263.184 155C263.184 227.68 204.27 286.592 131.592 286.592C58.9163 286.592 0 227.68 0 155C0 82.323 58.9163 23.4077 131.592 23.4077C204.27 23.4077 263.184 82.323 263.184 155Z" fill="#1BA27A"/>
    <path d="M191.934 92.0396H69.1479V122.515H115.719V167.308H145.362V122.515H191.934V92.0396Z" fill="white"/>
    <path d="M130.823 172.082C92.2975 172.082 61.0633 165.814 61.0633 158.08C61.0633 150.348 92.296 144.078 130.823 144.078C169.348 144.078 200.581 150.348 200.581 158.08C200.581 165.814 169.348 172.082 130.823 172.082ZM209.151 160.414C209.151 150.443 174.082 142.36 130.823 142.36C87.5643 142.36 52.4934 150.443 52.4934 160.414C52.4934 169.196 79.6868 176.512 115.721 178.133V242.433H145.362V178.158C181.673 176.588 209.151 169.241 209.151 160.414Z" fill="white"/>
</svg>
