<svg xmlns="http://www.w3.org/2000/svg" width="776" height="310" viewBox="0 0 776 310" fill="none"><script xmlns=""/>
    <path d="M549.506 100.904L529.787 219.926H561.135L580.348 100.904H549.506Z" fill="#0082E5"/>
    <path d="M503.992 100.904L474.667 182.606L471.128 164.954L460.51 111.495C460.51 111.495 459.499 100.904 445.848 100.904H396.804L396.298 102.922H396.804H397.31H397.815H398.321C398.826 102.922 398.826 102.922 399.332 102.922C399.838 102.922 400.343 102.922 400.849 103.426C401.354 103.426 401.354 103.426 401.86 103.93C402.366 103.93 402.366 103.93 402.871 104.435C403.377 104.435 403.377 104.435 403.882 104.939C404.388 104.939 404.894 105.443 405.399 105.443C405.905 105.443 406.41 105.948 406.41 105.948C406.916 105.948 407.422 106.452 407.927 106.452C408.433 106.452 408.938 106.956 409.444 106.956C410.455 107.461 411.466 107.461 411.972 107.965C412.478 107.965 412.983 108.469 413.489 108.469C413.994 108.469 414.5 108.974 415.006 108.974C415.511 108.974 416.017 109.478 416.523 109.478C417.028 109.982 417.534 109.982 418.039 110.487C418.545 110.991 419.051 110.991 420.062 111.495C421.073 112.504 421.579 112.504 422.084 113.008C423.095 113.513 424.107 114.017 425.118 114.521C425.623 114.521 426.129 115.025 426.635 115.53C427.14 116.034 428.151 116.538 428.657 117.043L455.454 219.926H487.813L536.856 101.409H503.992V100.904Z" fill="#0082E5"/>
    <path d="M751.225 100.904H726.451C714.822 100.904 712.294 109.982 712.294 109.982L665.778 219.926H698.137L704.71 202.274H744.147L747.686 219.926H776L751.225 100.904ZM713.305 177.562L729.484 133.181L738.585 177.562H713.305Z" fill="#0082E5"/>
    <path d="M624.821 134.191C624.821 120.575 655.158 122.592 668.303 129.652L672.348 103.932C672.348 103.932 658.697 98.8884 644.54 98.8884C629.372 98.8884 592.463 105.445 592.463 138.226C592.463 168.99 635.439 169.494 635.439 185.129C635.439 201.267 597.013 198.241 584.373 188.155L579.823 214.884C579.823 214.884 593.474 221.44 614.709 221.44C635.945 221.44 667.798 210.345 667.798 180.59C667.798 150.33 624.821 147.304 624.821 134.191Z" fill="#0082E5"/>
    <path d="M60.6378 283.713V266.458C60.7378 265.007 60.5291 263.551 60.0255 262.188C59.5219 260.824 58.7351 259.584 57.7173 258.55C56.6996 257.516 55.4744 256.712 54.1232 256.191C52.7721 255.671 51.3262 255.445 49.8817 255.531C47.9909 255.406 46.1015 255.794 44.4108 256.654C42.7201 257.514 41.29 258.814 40.2698 260.419C39.3399 258.862 38.0093 257.586 36.4184 256.726C34.8274 255.866 33.035 255.453 31.2301 255.531C29.6568 255.451 28.09 255.785 26.685 256.502C25.28 257.218 24.0856 258.291 23.2202 259.614V256.221H17.27V283.713H23.2774V268.587C23.1496 267.646 23.23 266.689 23.5129 265.784C23.7957 264.879 24.274 264.048 24.9135 263.35C25.5531 262.652 26.3381 262.105 27.2124 261.747C28.0868 261.39 29.0289 261.231 29.9714 261.282C33.9191 261.282 35.9216 263.87 35.9216 268.529V283.828H41.929V268.587C41.8064 267.647 41.8905 266.693 42.1753 265.79C42.46 264.887 42.9385 264.057 43.577 263.361C44.2154 262.664 44.9983 262.117 45.8702 261.758C46.7421 261.398 47.6818 261.236 48.623 261.282C52.6851 261.282 54.6304 263.87 54.6304 268.529V283.828L60.6378 283.713ZM149.519 256.221H139.735V247.881H133.728V256.221H128.293V261.685H133.842V274.338C133.842 280.722 136.303 284.518 143.34 284.518C145.969 284.527 148.547 283.79 150.778 282.39L149.061 277.271C147.465 278.228 145.654 278.762 143.797 278.824C140.937 278.824 139.85 276.984 139.85 274.223V261.685H149.576L149.519 256.221ZM200.267 255.531C198.816 255.488 197.381 255.839 196.112 256.548C194.844 257.256 193.788 258.296 193.058 259.557V256.221H187.165V283.713H193.115V268.299C193.115 263.755 195.061 261.225 198.837 261.225C200.109 261.207 201.373 261.442 202.556 261.915L204.386 256.163C203.028 255.674 201.596 255.422 200.153 255.415L200.267 255.531ZM123.544 258.406C120.176 256.393 116.303 255.395 112.387 255.531C105.465 255.531 100.945 258.866 100.945 264.33C100.945 268.817 104.263 271.577 110.385 272.44L113.246 272.843C116.507 273.303 118.051 274.166 118.051 275.718C118.051 277.847 115.877 279.054 111.815 279.054C108.548 279.149 105.344 278.136 102.718 276.179L99.8576 280.837C103.324 283.27 107.475 284.52 111.701 284.403C119.596 284.403 124.173 280.665 124.173 275.431C124.173 270.197 120.569 268.069 114.619 267.206L111.758 266.804C109.183 266.458 107.124 265.941 107.124 264.1C107.124 262.26 109.069 260.879 112.33 260.879C115.344 260.915 118.299 261.727 120.912 263.238L123.544 258.406ZM282.912 255.531C281.461 255.488 280.026 255.839 278.757 256.548C277.488 257.256 276.433 258.296 275.703 259.557V256.221H269.81V283.713H275.76V268.299C275.76 263.755 277.706 261.225 281.482 261.225C282.754 261.207 284.018 261.442 285.2 261.915L287.031 256.163C285.672 255.674 284.241 255.422 282.797 255.415L282.912 255.531ZM206.246 269.909C206.175 271.841 206.506 273.767 207.218 275.563C207.93 277.359 209.007 278.986 210.381 280.339C211.754 281.692 213.393 282.743 215.193 283.423C216.994 284.103 218.915 284.398 220.835 284.288C224.408 284.471 227.919 283.301 230.676 281.01L227.815 276.179C225.758 277.755 223.25 278.623 220.664 278.652C218.464 278.473 216.412 277.468 214.916 275.838C213.42 274.207 212.59 272.07 212.59 269.852C212.59 267.634 213.42 265.497 214.916 263.866C216.412 262.236 218.464 261.231 220.664 261.052C223.25 261.081 225.758 261.948 227.815 263.525L230.676 258.694C227.919 256.402 224.408 255.233 220.835 255.415C218.915 255.306 216.994 255.601 215.193 256.281C213.393 256.961 211.754 258.011 210.381 259.365C209.007 260.718 207.93 262.345 207.218 264.141C206.506 265.937 206.175 267.862 206.246 269.794V269.909ZM261.972 269.909V256.221H256.022V259.557C255.011 258.25 253.706 257.203 252.214 256.503C250.722 255.803 249.085 255.469 247.44 255.531C243.646 255.531 240.008 257.045 237.326 259.742C234.643 262.439 233.136 266.096 233.136 269.909C233.136 273.723 234.643 277.38 237.326 280.077C240.008 282.773 243.646 284.288 247.44 284.288C249.085 284.349 250.722 284.016 252.214 283.316C253.706 282.616 255.011 281.569 256.022 280.262V283.598H261.972V269.909ZM239.83 269.909C239.925 268.291 240.489 266.736 241.452 265.436C242.415 264.135 243.735 263.146 245.25 262.591C246.765 262.035 248.408 261.937 249.978 262.309C251.547 262.68 252.975 263.505 254.084 264.681C255.193 265.858 255.936 267.335 256.221 268.931C256.505 270.526 256.32 272.171 255.687 273.662C255.053 275.153 254 276.425 252.657 277.322C251.314 278.219 249.739 278.701 248.126 278.709C246.993 278.724 245.87 278.502 244.827 278.059C243.783 277.616 242.842 276.96 242.063 276.134C241.284 275.307 240.683 274.328 240.299 273.256C239.915 272.185 239.755 271.046 239.83 269.909ZM168.027 255.531C164.234 255.584 160.617 257.15 157.972 259.884C155.327 262.619 153.871 266.297 153.924 270.111C153.977 273.924 155.535 277.56 158.255 280.219C160.975 282.878 164.634 284.342 168.428 284.288C172.544 284.501 176.591 283.168 179.785 280.55L176.924 276.121C174.665 277.942 171.867 278.954 168.971 278.997C167.005 279.167 165.049 278.559 163.521 277.302C161.994 276.046 161.014 274.239 160.79 272.268H181.101C181.101 271.52 181.101 270.772 181.101 269.967C181.101 261.34 175.78 255.588 168.113 255.588L168.027 255.531ZM168.027 260.879C168.918 260.86 169.803 261.018 170.633 261.343C171.463 261.668 172.221 262.154 172.864 262.774C173.507 263.393 174.022 264.134 174.38 264.954C174.738 265.774 174.932 266.656 174.95 267.551H160.647C160.75 265.705 161.569 263.973 162.927 262.726C164.285 261.479 166.075 260.816 167.913 260.879H168.027ZM317.097 269.967V245.178H311.376V259.557C310.365 258.25 309.06 257.203 307.568 256.503C306.076 255.803 304.439 255.469 302.794 255.531C299 255.531 295.362 257.045 292.68 259.742C289.997 262.439 288.49 266.096 288.49 269.909C288.49 273.723 289.997 277.38 292.68 280.077C295.362 282.773 299 284.288 302.794 284.288C304.439 284.349 306.076 284.016 307.568 283.316C309.06 282.616 310.365 281.569 311.376 280.262V283.598H317.097V269.967ZM327.023 279.716C327.395 279.711 327.765 279.78 328.111 279.917C328.439 280.052 328.74 280.247 328.997 280.492C329.249 280.74 329.452 281.033 329.598 281.355C329.743 281.691 329.818 282.053 329.818 282.419C329.818 282.785 329.743 283.147 329.598 283.483C329.452 283.805 329.249 284.098 328.997 284.346C328.74 284.591 328.439 284.786 328.111 284.921C327.768 285.073 327.398 285.151 327.023 285.151C326.481 285.147 325.951 284.988 325.495 284.693C325.04 284.397 324.677 283.978 324.449 283.483C324.306 283.147 324.232 282.785 324.232 282.419C324.232 282.053 324.306 281.691 324.449 281.355C324.595 281.033 324.798 280.74 325.05 280.492C325.307 280.247 325.608 280.052 325.936 279.917C326.309 279.768 326.709 279.7 327.109 279.716H327.023ZM327.023 284.576C327.309 284.578 327.592 284.519 327.853 284.403C328.099 284.293 328.322 284.137 328.511 283.943C328.869 283.551 329.067 283.038 329.067 282.505C329.067 281.973 328.869 281.46 328.511 281.067C328.323 280.873 328.1 280.717 327.853 280.607C327.591 280.493 327.309 280.434 327.023 280.435C326.738 280.436 326.456 280.495 326.194 280.607C325.937 280.713 325.703 280.87 325.507 281.067C325.149 281.46 324.951 281.973 324.951 282.505C324.951 283.038 325.149 283.551 325.507 283.943C325.704 284.14 325.937 284.297 326.194 284.403C326.482 284.528 326.795 284.587 327.109 284.576H327.023ZM327.195 281.154C327.462 281.141 327.725 281.222 327.939 281.384C328.026 281.457 328.095 281.549 328.14 281.654C328.185 281.759 328.204 281.874 328.196 281.988C328.2 282.083 328.185 282.178 328.15 282.268C328.116 282.357 328.063 282.438 327.996 282.505C327.83 282.657 327.619 282.748 327.395 282.764L328.225 283.713H327.567L326.795 282.764H326.537V283.713H325.994V281.182L327.195 281.154ZM326.566 281.643V282.333H327.195C327.307 282.366 327.426 282.366 327.538 282.333C327.559 282.293 327.569 282.248 327.569 282.203C327.569 282.158 327.559 282.114 327.538 282.074C327.559 282.034 327.569 281.989 327.569 281.944C327.569 281.9 327.559 281.855 327.538 281.815C327.426 281.782 327.307 281.782 327.195 281.815L326.566 281.643ZM295.098 269.967C295.193 268.349 295.757 266.794 296.72 265.493C297.683 264.193 299.003 263.204 300.518 262.648C302.033 262.093 303.676 261.995 305.246 262.366C306.815 262.738 308.243 263.562 309.352 264.739C310.461 265.916 311.204 267.393 311.489 268.988C311.774 270.584 311.588 272.228 310.955 273.719C310.322 275.21 309.268 276.482 307.925 277.379C306.582 278.276 305.007 278.758 303.394 278.767C302.262 278.781 301.138 278.56 300.095 278.117C299.051 277.673 298.111 277.018 297.331 276.191C296.552 275.365 295.951 274.385 295.567 273.314C295.183 272.243 295.023 271.103 295.098 269.967ZM94.1935 269.967V256.221H88.2433V259.557C87.2328 258.25 85.9276 257.203 84.4354 256.503C82.9432 255.803 81.3068 255.469 79.6613 255.531C75.8678 255.531 72.2296 257.045 69.5472 259.742C66.8649 262.439 65.3579 266.096 65.3579 269.909C65.3579 273.723 66.8649 277.38 69.5472 280.077C72.2296 282.773 75.8678 284.288 79.6613 284.288C81.3068 284.349 82.9432 284.016 84.4354 283.316C85.9276 282.616 87.2328 281.569 88.2433 280.262V283.598H94.1935V269.967ZM72.0519 269.967C72.1467 268.349 72.7103 266.794 73.6733 265.493C74.6362 264.193 75.9563 263.204 77.4712 262.648C78.9861 262.093 80.6296 261.995 82.1993 262.366C83.769 262.738 85.1963 263.562 86.3055 264.739C87.4148 265.916 88.1575 267.393 88.4423 268.988C88.7271 270.584 88.5414 272.228 87.9082 273.719C87.275 275.21 86.2219 276.482 84.8786 277.379C83.5353 278.276 81.9604 278.758 80.3478 278.767C79.2104 278.789 78.0807 278.574 77.0305 278.134C75.9802 277.694 75.0323 277.04 74.2469 276.213C73.4615 275.385 72.8558 274.403 72.4681 273.328C72.0803 272.253 71.9191 271.108 71.9947 269.967H72.0519Z" fill="white"/>
    <path d="M211.676 46.7219H121.564V209.519H211.676V46.7219Z" fill="#FF5F00"/>
    <path d="M127.285 128.14C127.268 112.459 130.801 96.9801 137.616 82.8749C144.431 68.7698 154.349 56.4084 166.619 46.7268C151.426 34.7239 133.181 27.2601 113.968 25.1883C94.7554 23.1164 75.3505 26.5202 57.971 35.0107C40.5916 43.5011 25.9389 56.7355 15.6876 73.2015C5.43631 89.6675 0 108.701 0 128.126C0 147.55 5.43631 166.584 15.6876 183.05C25.9389 199.516 40.5916 212.75 57.971 221.24C75.3505 229.731 94.7554 233.135 113.968 231.063C133.181 228.991 151.426 221.527 166.619 209.524C154.352 199.846 144.437 187.489 137.622 173.389C130.807 159.289 127.272 143.816 127.285 128.14Z" fill="#EB001B"/>
    <path d="M333.256 128.137C333.256 147.563 327.818 166.597 317.565 183.064C307.312 199.53 292.657 212.765 275.275 221.254C257.894 229.743 238.487 233.145 219.273 231.07C200.059 228.995 181.814 221.528 166.622 209.521C178.884 199.834 188.797 187.474 195.613 173.373C202.43 159.272 205.971 143.8 205.971 128.122C205.971 112.445 202.43 96.9722 195.613 82.8716C188.797 68.771 178.884 56.4108 166.622 46.7236C181.814 34.717 200.059 27.2495 219.273 25.1747C238.487 23.0999 257.894 26.5016 275.275 34.9908C292.657 43.48 307.312 56.7142 317.565 73.1807C327.818 89.6472 333.256 108.682 333.256 128.108V128.137Z" fill="#F79E1B"/>
</svg>
